<?xml version="1.0" encoding="utf-8"?>
<!-- Generator: Adobe Illustrator 27.4.0, SVG Export Plug-In . SVG Version: 6.00 Build 0)  -->
<svg version="1.1" id="Слой_1" xmlns="http://www.w3.org/2000/svg" xmlns:xlink="http://www.w3.org/1999/xlink" x="0px" y="0px"
	 viewBox="0 0 478 427" style="enable-background:new 0 0 478 427;" xml:space="preserve">
<style type="text/css">
	.st0{fill:#5B74F9;}
</style>
<g transform="translate(0.000000,427.000000) scale(0.100000,-0.100000)">
	<g>
		<path class="st0" d="M2255,3979c-882-56-1655-654-1935-1497c-70-209-103-392-113-609l-3-73h197h196l6,113c12,231,73,455,187,682
			c96,190,179,304,340,465s275,244,465,340c157,79,299,128,467,162c98,20,143,23,343,23s245-3,343-23c168-34,310-83,467-162
			c190-96,304-179,465-340s244-275,340-465c114-227,175-451,187-682l6-113h198h198l-4,28c-2,15-6,74-9,132c-13,254-90,534-218,797
			c-256,522-721,929-1276,1113C2822,3963,2551,3998,2255,3979z"/>
		<path class="st0" d="M2215,3279c-341-46-626-188-871-433c-220-221-349-458-415-766c-33-152-33-438,0-590c66-308,195-545,415-766
			c221-220,458-349,766-415c152-33,438-33,590,0c308,66,545,195,766,415c220,221,349,458,415,766c19,88,23,135,23,295s-4,207-23,295
			c-66,308-195,545-415,766c-220,219-461,351-761,414C2589,3284,2327,3295,2215,3279z M2573,2875c472-71,851-450,922-922
			c19-124,19-212,0-336c-71-472-450-851-922-922c-479-72-938,167-1157,602c-210,420-126,932,210,1267C1876,2815,2221,2928,2573,2875
			z"/>
		<path class="st0" d="M2318,2530c-345-41-620-317-657-659l-7-71h198h198v30c0,62,41,142,104,206c77,77,143,104,251,104
			s174-27,251-104c63-64,104-144,104-206v-30h198h198l-7,71c-15,138-75,280-164,389C2827,2453,2566,2559,2318,2530z"/>
	</g>
</g>
</svg>
