
<?xml version="1.0" encoding="UTF-8"?>
<svg id="_Слой_2" data-name="Слой 2" xmlns="http://www.w3.org/2000/svg" viewBox="0 0 383.49 420.1">

  <defs>
  
    <style>
      .cls-1 {
        fill: black;
      }
    </style>
  </defs>
  <g id="_Слой_1-2" data-name="Слой 1">
    <path class="cls-1" d="m.34,303.01c1.05-.44,1.65-.62,2.17-.93,20.62-12.36,41.29-24.65,61.82-37.16,5.41-3.3,9.92-7.79,10.57-14.57.46-4.83.31-9.72.29-14.59-.1-23.98-.24-47.96-.38-71.94-.06-9.44,2.16-17.18,11.45-22.36,21.9-12.22,43.4-25.17,65.04-37.85,13.29-7.78,26.51-15.67,39.86-23.35,1.2-.69,3.43-.81,4.59-.15,9.84,5.57,19.57,11.34,29.28,17.14,28.16,16.83,56.27,33.73,84.47,50.49,1.07.63,3.15.65,4.22.04,19.24-11.12,38.4-22.38,57.57-33.61,3.89-2.28,7.79-4.56,12.22-7.16-3.43-2.26-6.16-4.23-9.04-5.92-54.14-31.82-108.36-63.52-162.41-95.49-12.74-7.53-25.08-7.37-37.49-.08-23.54,13.82-46.91,27.92-70.44,41.75-29.32,17.24-58.75,34.3-88.09,51.5C5.62,104.87.13,113.87.17,126.14.22,138.51-.01,150.88,0,163.24c.04,45.73.14,91.47.22,137.2,0,.73.07,1.45.12,2.56Z"/>
    <path class="cls-1" d="m379.67,312.97c-5.11-2.86-9.47-5.18-13.71-7.7-18.19-10.79-36.33-21.68-54.57-32.39-1.19-.7-3.4-.83-4.57-.19-8.62,4.72-17.12,9.65-25.61,14.61-28.81,16.83-57.6,33.72-86.44,50.49-1.01.59-2.88.71-3.86.17-6.32-3.49-12.5-7.24-18.73-10.88-30.56-17.86-61.13-35.7-91.66-53.61-1.72-1.01-2.84-1.12-4.66-.03-16.25,9.74-32.59,19.32-48.89,28.96-5.96,3.53-11.89,7.12-18.23,10.93,1.15.81,1.8,1.34,2.5,1.75,19.15,11.32,38.37,22.55,57.46,33.97,36.79,22.02,73.55,44.1,110.26,66.27,9.25,5.59,18.05,6.81,27.86.75,24.31-15,48.89-29.54,73.44-44.14,23.5-13.98,47.11-27.78,70.65-41.7,9.3-5.5,18.53-11.11,28.77-17.26Z"/>
  </g>
</svg>