<?xml version="1.0" encoding="utf-8"?>
<!-- Generator: Adobe Illustrator 27.4.0, SVG Export Plug-In . SVG Version: 6.00 Build 0)  -->
<svg version="1.1" id="_Слой_1" xmlns="http://www.w3.org/2000/svg" xmlns:xlink="http://www.w3.org/1999/xlink" x="0px"
	 y="0px" viewBox="0 0 957 830" style="enable-background:new 0 0 957 830;" xml:space="preserve">
<style type="text/css">
	.st0{fill-rule:evenodd;clip-rule:evenodd;fill:#3E5EB1;}
	.st1{fill-rule:evenodd;clip-rule:evenodd;fill:#455FAD;}
	.st2{fill-rule:evenodd;clip-rule:evenodd;fill:#3E5EB0;}
</style>
<path class="st0" d="M796,706c35.3-48.4,54.5-102.7,57.5-163c3-54.2-5.3-106.5-25-157C802,317.8,762.2,258.6,709,208.5
	c-77-66.7-166.4-93.7-268-81c-84.9,14.7-154.4,55.2-208.5,121.5c-57.8,68.2-92.8,146.9-105,236c-6.9,65.4,4.4,127.4,34,186
	c7,12.1,14.5,23.7,22.5,35c-56.7-68.2-87.8-146.8-93.5-236C86.8,344.4,130.2,238.5,221,152.5c101.5-87.6,218.5-119.3,351-95
	C696.8,86.8,789,157.9,848.5,271c49,103,54.7,208.3,17,316C849,630.9,825.8,670.5,796,706z"/>
<path class="st1" d="M716.5,336C654.2,251.1,570.1,210.5,464,214c-21.3,2-42.3,6.2-63,12.5c-91.2,31.2-152.3,92.3-183.5,183.5
	c-27.4,99.2-8.7,188.5,56,268c78,83.2,172.8,112,284.5,86.5c86.3-25.1,147.8-78.6,184.5-160.5C779.8,510.1,771.1,420.8,716.5,336z
	 M663.5,595c-40.8,66.6-100.4,101.2-179,104c-78.1-3-137.4-37.7-178-104c-36.4-70.5-35.1-140.1,4-209c38.8-58.7,93.3-91,163.5-97
	c83.1-0.9,146.3,33.8,189.5,104C698.8,460.3,698.8,527.6,663.5,595z"/>
<path class="st2" d="M583,564c12.5-25.5,13.3-51.5,2.5-78c-10.5-26.1-26.7-48-48.5-65.5c-41.3-23.6-78.4-18.5-111.5,15.5
	c-20.1,22.3-32.8,48.3-38,78c-1.9,17.7,1.3,34.4,9.5,50c-15.1-18.2-24-39.2-26.5-63c-2.7-54.3,19.8-94.5,67.5-120.5
	c46.2-19.7,89.2-14.4,129,16c42,39,53.2,85.5,33.5,139.5C596,546.3,590.2,555.6,583,564z"/>
</svg>
