<?xml version="1.0" encoding="UTF-8"?>
<svg id="_Слой_2" data-name="Слой 2" xmlns="http://www.w3.org/2000/svg" viewBox="0 0 589.16 578.75">
  <defs>
    <style>
      .cls-1 {
        fill: #fff;
      }
    </style>
  </defs>
  <g id="_Слой_1-2" data-name=" Слой 1">
    <path class="cls-1" d="m0,282.6c1.09-53.2,17.73-108.47,53.36-157.45C100.69,60.1,164.31,20.35,243.07,5.14c50.93-9.84,100.99-5.4,149.89,12.03,58.25,20.77,105.18,56.61,141.81,106.22,27.76,37.58,44,79.85,51.05,125.82,8.51,55.56.68,109.11-22.73,159.85-28.23,61.16-72.85,107.37-133.33,137.5-44.69,22.26-92.11,33.61-142.23,32.05-49.47-1.54-95.79-14.79-139.2-38.47-58.43-31.87-99.33-79.7-126.17-139.9C6.52,365.18-.03,328.02,0,282.62v-.02Zm296.49,283.74c6.61-.32,14.6-.61,22.58-1.14,4.48-.3,8.96-.87,13.4-1.53,53.56-7.96,101.93-28,143.97-62.44,23.67-19.39,43.78-42.11,59.87-68.13,20.53-33.19,32.69-69.4,37.83-108.11,6.57-49.48-.55-97.14-20.19-142.63-24.18-56.04-63.62-99.13-116.28-129.84-53.52-31.2-111.07-44.97-173.01-37.64-38.01,4.49-73.89,15.93-107.43,34.52-38.24,21.19-69.84,49.68-95.21,85.29-31.64,44.41-47.38,94.02-49.11,148.23-.83,25.86,1.91,51.42,8.59,76.48,14.93,55.99,45.5,102.1,89.14,139.69,26.15,22.53,56.27,38.27,88.67,49.89,30.98,11.12,62.86,17.05,97.19,17.37h0Z"/>
    <path class="cls-1" d="m42.42,289.74c-.09-53.73,16.65-101.76,48.67-144.51,44.25-59.07,103.79-92.47,176.54-101.44,55.46-6.83,107.6,5.04,155.72,33.74,48.11,28.7,83.34,68.65,105.33,120.26,15.55,36.48,19.93,74.57,16.89,113.77-3.59,46.37-20.66,87.81-47.41,125.27-14.89,20.86-33.71,38.09-54.74,52.91-39.05,27.51-82.44,43.05-129.9,46.8-46.7,3.69-90.97-6.11-132.92-26.53-30.36-14.78-56.9-34.66-78.76-60.57-31.71-37.57-50.77-80.76-57.18-129.45-1.32-10.01-1.52-20.17-2.24-30.26h0Zm258.34,237.23c9.1-.97,23.66-1.6,37.84-4.22,35.35-6.53,67.9-20.38,97.37-40.95,31.64-22.08,57.12-49.63,74.62-84.46,21.82-43.43,30.72-89.08,24.86-137.33-4.62-37.98-19.37-72.2-40.94-103.53-21.09-30.62-48.86-53.98-80.92-72.34-46.96-26.9-97.56-36.45-151-29.23-51.15,6.91-95.41,29.27-133.8,63.42-17.49,15.56-31.67,33.92-43.64,54.03-15.89,26.72-26.94,55.25-30.89,86.15-5.62,43.88.6,86.11,18.83,126.58,15.86,35.23,38.74,64.85,69.31,88.45,45.04,34.78,96.17,52.14,158.37,53.43h0Z"/>
    <path class="cls-1" d="m294.12,492.65c-56.01-112.85-112.02-225.71-168.16-338.83.84-.08,1.75-.23,2.66-.24,17.37-.05,34.75-.13,52.12-.03,1.24,0,3.1,1,3.62,2.05,21.31,42.97,42.5,85.99,63.7,129.01,15.02,30.48,30.01,60.96,45.03,91.44.53,1.08,1.16,2.12,2.07,3.77,3.23-6.52,6.18-12.41,9.07-18.33,21.74-44.58,43.48-89.16,65.19-133.76,11.65-23.92,23.25-47.87,34.96-71.76.5-1.01,1.88-2.27,2.85-2.28,18.36-.14,36.72-.1,55.97-.1-56.09,113.31-111.9,226.06-167.72,338.81l-1.37.25h.01Zm142.98-322.74c-6.57,0-12.19.19-17.78-.08-3-.14-4.49,1.02-5.72,3.58-5.95,12.38-12.03,24.7-18.07,37.04-31.24,63.82-62.49,127.64-93.72,191.47-2.17,4.44-4.2,8.94-6.64,14.14-1.42-2.57-2.5-4.36-3.42-6.23-27.54-55.92-55.06-111.85-82.61-167.77-10.54-21.4-21.28-42.7-31.68-64.17-3.91-8.08-3.59-8.23-12.49-8.23h-12.9c47.61,96.03,94.89,191.38,142.17,286.72.54-.05,1.08-.1,1.62-.14,46.99-95.27,93.98-190.54,141.24-286.34h0Z"/>
    <path class="cls-1" d="m298.8,314.09c3.72-7.61,7.44-15.22,11.18-22.82,20.94-42.59,41.88-85.18,62.83-127.77,5.24-10.65,10.54-21.26,15.72-31.93,1.19-2.45,2.81-3.39,5.58-3.34,10.62.17,21.25.21,31.87.04,1.74-.03,3.74-1.02,5.14-2.15,3.39-2.75,6.47-5.87,9.72-8.79.73-.65,1.71-1.57,2.5-1.5,1.58.13,3.1.86,4.65,1.34-.5,1.37-.63,3.16-1.59,4.02-2.55,2.31-5.47,4.21-8.24,6.28.04.38.08.76.11,1.14,2.77,0,5.54-.02,8.3,0,4.37.04,8.77-.12,13.11.31,1.45.14,2.76,1.83,4.13,2.81-1.31,1.23-2.49,2.69-3.99,3.61-.82.5-2.19.11-3.32.11-19.5-.02-38.99,0-58.49-.11-2.63-.02-3.95.83-5.11,3.21-22.2,45.58-44.44,91.14-66.8,136.64-9.36,19.05-19,37.96-28.55,56.93-.65,1.3-1.55,2.47-2.74,4.34-1.21-1.93-2.21-3.27-2.94-4.74-13.53-27.16-27.03-54.34-40.53-81.52-18.33-36.91-36.69-73.81-54.92-110.77-1.52-3.09-3.26-4.19-6.81-4.15-19.49.25-38.99.17-58.49.2-.62,0-1.25,0-1.87,0-2.21-.07-3.58-1.13-3.6-3.42-.02-2.45,1.27-3.62,3.75-3.6,5.75.06,11.5.06,17.25.06,1.2,0,2.41-.11,4.42-.22-2.95-2.47-5.3-4.43-7.64-6.4-1.7-1.44-2.75-3.2-1.07-5.15,1.72-1.99,3.82-1.62,5.59.09,3.05,2.95,6.14,5.89,8.97,9.05,1.63,1.81,3.25,2.64,5.77,2.6,10.74-.19,21.5,0,32.24-.26,3.15-.08,4.69,1.09,6,3.74,13.75,27.89,27.63,55.72,41.37,83.62,15.89,32.26,31.66,64.57,47.49,96.86.32.64.73,1.24,1.47,2.5v-7.78c.03-10.5.21-21-.03-31.49-.05-2.23-1.18-4.81-2.62-6.57-4.58-5.6-9.65-10.81-14.28-16.38-1.16-1.39-1.86-3.56-1.92-5.4-.19-6.62.01-13.24.02-19.87,0-2.47.48-4.76,3.45-4.77,2.94-.02,3.07,2.36,3.09,4.59.04,6.25-.04,12.5.21,18.74.06,1.55.84,3.34,1.85,4.55,4.31,5.18,8.84,10.18,13.69,15.7,5.14-5.95,10.29-11.8,15.28-17.78.61-.73.54-2.13.55-3.22.05-5.87-.04-11.75.06-17.62.02-1.3.31-2.86,1.08-3.8.63-.77,2.4-1.37,3.24-1.02,1,.41,2.16,1.91,2.18,2.96.16,7.74.15,15.5-.06,23.24-.04,1.28-1.17,2.68-2.1,3.77-4.93,5.81-9.98,11.52-14.92,17.33-.85,1-1.95,2.28-1.97,3.44-.14,13.44-.09,26.88-.09,40.33.26.06.52.12.78.18l.05.02Z"/>
    <path class="cls-1" d="m483.69,361.78c-5.28,0-10.26-.01-15.24,0-13.62.04-27.25.01-40.87.26-1.84.03-4.14,1.04-5.4,2.38-7.78,8.29-15.41,16.74-22.88,25.31-1.25,1.44-2.08,3.72-2.13,5.64-.32,11.49-.26,23-.59,34.49-.06,1.91-1.06,4.08-2.28,5.62-4.35,5.47-8.79,10.91-13.58,16-3.9,4.14-2.21,8.93-2.29,13.51,0,.56,2.3,1.45,3.63,1.71,10.17,1.97,13.32,12.91,9.91,20.13-2.75,5.82-7.74,8.99-14.42,8.71-5.95-.26-10.83-3.93-12.97-9.76-2.08-5.65-.62-12.34,4.09-16.01,2.5-1.95,3.59-4.04,3.12-6.99-1.25-7.94,1.34-14.17,7.47-19.44,3.66-3.15,6.6-7.16,9.61-10.99.98-1.24,1.58-3.12,1.61-4.72.2-11.37.3-22.75.23-34.12-.02-2.84.82-4.99,2.72-7.03,8.75-9.44,17.44-18.94,26.1-28.47,1.89-2.08,3.97-2.96,6.89-2.92,19.5.22,39,.29,58.5.28,1.76,0,3.68-.56,5.24-1.39,7.77-4.13,17.16-1.19,20.61,6.62,3.6,8.15-.18,17.32-8.53,20.13-2.12.71-2.65,1.72-2.59,3.75.15,4.87.08,9.75.15,14.62.03,2.28-.62,4.12-3.19,4.16-2.63.04-3.24-1.9-3.24-4.11.01-5.12.19-10.25-.03-15.37-.06-1.27-1.07-3-2.16-3.66-7.25-4.37-9.48-9.25-7.49-18.33h0Zm13.76-2.08c-4.43.06-7.39,2.73-7.41,6.67-.02,4.28,3.99,8.46,7.97,8.31,3.72-.14,7.36-3.97,7.29-7.67-.08-4.12-3.57-7.37-7.86-7.31h.01Zm-111.26,121.04c.08-3.65-3.64-7.4-7.46-7.51-4.02-.11-7.57,3.48-7.58,7.65-.01,3.94,3.41,7.46,7.31,7.53,3.91.07,7.64-3.63,7.73-7.67h0Z"/>
    <path class="cls-1" d="m118.16,321.88c1.2,1.43,1.76,2.21,2.43,2.88,8.87,8.8,17.81,17.53,26.59,26.41,2.36,2.38,4.82,3.89,8.22,3.38,7.93-1.2,13.61,2.02,18.72,8.05,6.69,7.9,14.25,15.06,21.28,22.68,1.05,1.14,1.8,3.01,1.83,4.55.19,10.99.07,21.99.27,32.99.03,1.63.96,3.53,2.1,4.71.43.45,2.75-.54,3.96-1.28,6.22-3.76,14.69-1.81,18.83,4.46,4.51,6.81,3.08,16.14-3.35,20.39-5.35,3.54-11.11,3.94-16.61.49-5.17-3.24-7.53-8.03-6.81-14.36.19-1.68-.63-3.86-1.72-5.2-1.89-2.32-2.95-4.42-2.87-7.65.27-10.49.09-20.99-.14-31.48-.04-1.67-.87-3.68-2.01-4.91-7.73-8.33-15.57-16.56-23.58-24.63-1.31-1.33-3.68-2.53-5.42-2.36-9.01.89-15.54-2.18-21.59-9.23-8.35-9.74-18.15-18.22-27.17-27.39-2.05-2.08-4.14-2.73-6.94-2.7-12.37.14-24.74.11-37.11.12-1.25,0-2.67.24-3.69-.28-1.05-.53-2.29-1.81-2.36-2.84s.96-2.61,1.95-3.12c1.23-.64,2.9-.57,4.38-.57,38.36-.07,76.72-.1,115.09-.16,2.48,0,5.16-.05,5.09,3.35-.06,3.1-2.39,3.61-5.05,3.61-19.87,0-39.74.06-59.6.1h-4.73.01Zm99.83,117.38c.05-3.91-3.42-7.36-7.44-7.39-4.28-.03-7.64,3.01-7.73,7.01-.09,4.1,3.72,7.99,7.83,8,3.73,0,7.3-3.69,7.35-7.61h0Z"/>
    <path class="cls-1" d="m461.83,340.61c-19.24,0-38.48.06-57.72-.06-2.9-.02-4.52.89-5.81,3.5-18.36,37.02-36.85,73.99-55.23,111-8.83,17.77-17.51,35.61-26.24,53.43-1.04,2.13-1.83,4.38-2.93,6.47-1.03,1.97-2.96,3.31-4.88,1.91-1.15-.84-1.99-3.25-1.68-4.67.57-2.62,2.02-5.07,3.24-7.53,27.08-54.72,54.21-109.41,81.18-164.19,2.33-4.74,5.03-6.51,10.6-6.46,37.98.3,75.96.11,113.95.08,1.75,0,3.65-.4,5.2.17,1.35.5,2.29,2.1,3.41,3.21-1.16,1.02-2.21,2.7-3.51,2.94-2.67.48-5.47.21-8.22.21h-51.36Z"/>
    <path class="cls-1" d="m178.71,334.13c3.62,0,7.26.17,10.87-.05,3.21-.2,5.18,1.15,6.55,3.9,4.94,9.95,9.92,19.89,14.89,29.82,15.87,31.71,31.8,63.39,47.58,95.14,7.39,14.87,14.5,29.87,21.73,44.82.54,1.12,1.12,2.25,1.52,3.42.84,2.44.4,4.55-2.23,5.53-2.52.94-3.54-.83-4.49-2.76-17.83-36.17-35.68-72.33-53.54-108.49-10.07-20.37-20.21-40.7-30.2-61.11-1.32-2.69-2.83-3.98-5.97-3.85-6.24.27-12.49.17-18.74.2-2.06.01-4.38-.03-4.46-2.76-.08-2.8,1.83-3.79,4.5-3.74,4,.08,8,.02,11.99.02v-.09h0Z"/>
    <path class="cls-1" d="m324.77,188.35c3.17,2.45,6.97,4.4,9.37,7.45,5.23,6.63,3.5,15.05-3.38,20.04-6.1,4.42-15.6,2.76-20.45-3.58-4.61-6.03-3.72-15.26,2.79-19.62,3.84-2.57,4.48-5.31,4.45-9.43-.17-28.61-.16-57.23-.02-85.84.01-2.85-1.31-3.81-3.39-4.98-7.66-4.3-9.91-14.43-4.99-21.81,4.56-6.84,13.75-8.43,20.42-3.28,4.29,3.31,6.84,7.78,6.08,13.35-.78,5.77-3.66,10.22-9.28,12.68-1.15.5-2.6,2.1-2.6,3.19-.04,30.61.09,61.22.21,91.83,0,.23.16.46.24.69.18-.23.37-.46.55-.69h0Zm5.33,15.76c.07-4.06-3.66-7.69-7.96-7.74-3.82-.05-7.33,3.21-7.42,6.9-.11,4.39,3.51,8.09,7.98,8.15,3.95.05,7.34-3.29,7.4-7.3h0Zm-1.39-124.83c.04-3.95-3.65-7.4-7.91-7.4-4,0-7.16,3.12-7.17,7.09-.01,4.2,3.64,7.92,7.85,8.01,3.62.08,7.18-3.72,7.23-7.7Z"/>
    <path class="cls-1" d="m444.31,436.4h-25.72v11.73c7.69,2.07,12.82,6.53,12.8,14.89-.02,7.99-4.33,13-12.11,14.91.07,1.41.24,2.63.17,3.84-.14,2.35-1.37,3.82-3.83,3.6-2.23-.2-4.14-1.53-3.54-3.88.88-3.43-.94-4.63-3.33-6.35-9.24-6.63-8.46-19.19,1.29-25.29.92-.57,1.75-2.02,1.81-3.11.2-3.99.03-7.99.05-11.99.02-4.53.76-5.21,5.21-5.2,8.97.02,17.94,0,27.12,0,0-9.04.34-17.87-.11-26.67-.34-6.56,1.13-11.84,6.24-16.26,3.47-3,6.31-6.73,9.45-10.12,1.64-1.78,3.62-3.23,5.79-1.26,2.2,2,.94,3.97-.81,5.77-4.01,4.11-8.07,8.19-11.8,12.55-1.23,1.44-2.1,3.71-2.11,5.61-.14,19.23-.07,38.47-.06,57.7,0,.87.31,1.94-.07,2.58-.75,1.27-1.82,3.11-2.89,3.2-1.04.09-2.81-1.51-3.24-2.73-.6-1.67-.29-3.69-.3-5.56-.02-5.86,0-11.71,0-17.99v.03Zm-26.5,34.21c3.44-.09,6.76-3.94,6.64-7.71-.12-3.92-3.91-7.33-8.02-7.22-3.98.11-6.99,3.35-6.8,7.32.21,4.17,4.02,7.72,8.18,7.61h0Z"/>
    <path class="cls-1" d="m94.03,265.98c-8.7,0-17.68.04-26.67-.03-2.62-.02-6.23.72-6.22-3.38,0-4.14,3.62-3.33,6.24-3.31,10.24.09,20.48.31,30.73.42,1.06.01,2.22-.23,3.18-.67,11.28-5.1,20.22.19,21.24,12.6.02.23.18.44.53,1.23h20.3c-.12-.21-.31-.77-.68-1.14-7.94-7.96-15.85-15.95-23.93-23.77-1.17-1.14-3.18-1.89-4.84-1.96-5.36-.22-10.74-.05-16.11-.02-2.01.01-4.33-.34-3.83-2.77.3-1.45,2.43-3.51,3.84-3.58,6.6-.35,13.25-.35,19.85.05,1.83.11,3.87,1.7,5.28,3.13,9.02,9.17,17.97,18.42,26.76,27.81,1.87,1.99,3.6,3.14,6.4,2.9,2.85-.24,5.74-.02,8.62-.09,2.19-.06,3.82.72,3.87,3.04.06,2.54-1.66,3.34-4,3.33-13.12-.07-26.24-.05-39.35-.2-2.55-.03-4.42.62-6.28,2.45-4.39,4.35-9.8,5.41-15.59,3.44-5.17-1.76-8.89-5.27-9.75-10.85-.4-2.6.21-5.36.4-8.65v.02Zm14.01,13.41c3.78.12,7.55-3.44,7.67-7.25.14-4.21-2.9-7.44-7.09-7.53-4.17-.09-7.76,2.97-7.98,6.81-.22,3.77,3.57,7.85,7.41,7.97h-.01Z"/>
    <path class="cls-1" d="m266.89,188.95c0-6.9.02-14,0-21.1-.09-32.99-.21-65.98-.28-98.97,0-2.51-.7-6.06,3.08-6.08,3.72-.02,3.2,3.48,3.2,6.04-.04,39.24-.11,78.48-.19,117.72,0,2.04.06,3.63,2.28,4.96,5.77,3.43,8.06,10.79,5.78,17.03-2.41,6.58-8.63,10.47-15.61,9.74-6.41-.66-11.78-5.87-12.77-12.39-.98-6.44,2.93-12.9,9.41-15.44,1.38-.54,2.84-.85,5.1-1.51h0Zm.1,22.49c4.26.09,7.6-3.13,7.72-7.43.12-4.17-3.21-7.63-7.43-7.73-4.3-.1-7.71,3.16-7.71,7.38s3.28,7.7,7.43,7.78h-.01Z"/>
    <path class="cls-1" d="m297.84,155.45v86.99c0,1,.32,2.2-.12,2.95-.67,1.13-1.83,2.65-2.85,2.7-1.11.06-2.63-1.16-3.33-2.23-.59-.91-.31-2.42-.31-3.66,0-58.49.03-116.98.06-175.47,0-1.11-.18-2.48.38-3.28.76-1.1,2.07-2.26,3.28-2.43.72-.1,2.06,1.53,2.46,2.63.48,1.35.35,2.95.35,4.44.02,29.12.01,58.24.01,87.36h.08-.01Z"/>
    <path class="cls-1" d="m122.35,400.73c0-13.83.04-27.42-.07-41.01,0-1.06-.85-2.31-1.66-3.12-4.86-4.85-9.74-9.69-14.81-14.31-1.13-1.02-3.09-1.57-4.67-1.58-9.86-.06-19.73.1-29.59.17-1.25,0-2.7.34-3.69-.18-1.25-.66-3.1-2.23-2.94-3.07.25-1.3,1.8-2.67,3.14-3.34,1.1-.55,2.69-.14,4.06-.14,10.36,0,20.73-.1,31.09.14,2.01.05,4.45.93,5.91,2.27,5.96,5.5,11.72,11.22,17.29,17.11,1.28,1.35,2.08,3.71,2.1,5.61.17,14.97.08,29.95.15,44.93,0,1.03.54,2.14,1.06,3.08,3.72,6.78,2.58,13.65-3.14,18.54-5.04,4.31-13.31,4.62-18.44.69-5.25-4.01-6.98-11.97-3.98-18.33,3.09-6.55,9.28-9.29,16.88-7.47.23.06.49,0,1.32,0h-.01Zm-5.49,6.66c-4,.08-7.29,3.24-7.26,6.98.03,4.46,3.81,8.33,7.98,8.16,3.82-.16,7.03-3.71,7.03-7.79s-3.46-7.44-7.74-7.36h0Z"/>
    <path class="cls-1" d="m242.9,123.08c0-8.78-.09-17.27.05-25.74.04-2.55-1.56-2.99-3.31-3.75-7.69-3.32-11.22-11.34-8.34-18.78,2.82-7.29,11.19-11.28,18.78-8.72,6.05,2.04,9.2,6.7,10.09,12.8.86,5.87-2.12,11.86-7.44,14.33-2.91,1.35-3.69,3.05-3.59,6.01.26,7.36.14,14.73.44,22.08.05,1.21,1.19,2.88,2.29,3.47,5.78,3.08,9.18,9.14,8.3,15.39-.84,5.97-5.71,11.02-11.7,12.13-6.6,1.23-12.68-1.53-15.93-7.22-4.26-7.46-.91-17.41,7.02-20.76,1.02-.43,2.09-.77,3.34-1.24h0Zm2.76-35.17c3.68-.04,7.39-3.81,7.43-7.55.04-4.03-3.54-7.76-7.5-7.82-4.17-.06-7.84,3.42-7.81,7.41.02,4.07,3.92,8,7.88,7.96Zm.31,57.55c4.03-.09,7.19-3.45,7.1-7.56-.09-4.17-3.51-7.49-7.72-7.47-4.2,0-7.54,3.53-7.33,7.74.21,4.12,3.76,7.39,7.94,7.3h0Z"/>
    <path class="cls-1" d="m216.91,119.6c-5.9-.46-9.76-3.26-12.78-7.63-.65-.95-2.46-1.54-3.74-1.54-10.12-.03-20.24.38-30.34.06-2.64-.08-5.64-1.75-7.69-3.57-2.06-1.82-1.21-4.56,1.06-6.1,2.28-1.55,3.92-.63,4.89,1.94.22.6,1.25,1.27,1.92,1.28,10.59.08,21.18.06,32.02.06.8-7.53,4.63-12.35,12.48-13.95,0-4.14.03-8.23-.01-12.32-.02-2.43.78-4.36,3.43-4.43,2.73-.07,3.01,2.13,3.07,4.23.04,1.62.1,3.25,0,4.87-.32,4.6-.11,8.08,4.99,11.09,7.89,4.67,7.66,16.82.26,22.52-2.52,1.94-3.24,3.93-3.18,6.91.2,8.99.13,17.98.2,26.98.02,2.42-.22,4.87-3.27,4.84-3.01-.03-3.29-2.5-3.28-4.9v-30.31l-.03-.03Zm7.51-14.93c.04-4.13-3.7-7.81-7.91-7.8-3.73,0-7.08,3.34-7.18,7.16-.12,4.4,3.57,8.22,7.89,8.16,3.95-.05,7.17-3.41,7.21-7.51h-.01Z"/>
    <path class="cls-1" d="m481.4,273.2c-2.11-11.25,4.34-20.22,14.14-20.19,6.06.01,11.76,4.17,13.95,10.18,2.14,5.86.64,11.87-4,16.05-4.56,4.11-11.93,5.36-17.09,2.07-4.73-3.02-9.66-1.65-14.53-1.77-1.07-.02-2.31,1.31-3.23,2.26-5.41,5.54-10.63,11.27-16.21,16.64-1.52,1.46-4.02,2.58-6.1,2.65-9.74.29-19.48.16-29.23.17-.87,0-1.76.06-2.62-.03-2.11-.24-4.05-.8-3.91-3.51.14-2.66,1.75-3.61,4.27-3.57,9.87.14,19.74.3,29.6.24,1.52,0,3.41-.72,4.49-1.77,5.11-4.95,10.1-10.03,14.94-15.25,3.07-3.32,6.42-5.37,11.12-4.48,1.32.25,2.69.21,4.39.33l.02-.02Zm13.69-12.39c-4.05.04-7.19,3.4-7.09,7.59.1,4.09,3.88,7.63,8.19,7.64,3.64.01,7.33-3.93,7.19-7.69-.15-4.07-4-7.58-8.28-7.54h0Z"/>
    <path class="cls-1" d="m420.05,103.16c1.36-.95,2.64-2.44,4.11-2.66.95-.14,3.05,1.54,3.09,2.46.06,1.77-.47,4.15-1.69,5.21-1.43,1.24-3.83,1.8-5.84,1.86-8.62.27-17.25.14-25.86.41-1.98.06-4.26.67-5.82,1.82-5.02,3.7-9.88,7.66-14.55,11.8-1.18,1.04-1.95,3.11-2.02,4.74-.26,6.11-.26,12.25-.14,18.37.06,3.01-.9,5.19-3.25,7.11-5.62,4.58-11.19,9.23-16.53,14.13-1.34,1.23-2.34,3.48-2.42,5.32-.29,6.49-.13,12.99-.13,19.49,0,2.48-.12,5.24-3.34,5.24-3.02,0-3.15-2.72-3.16-5.02-.05-7.75-.2-15.5.08-23.24.06-1.66,1.41-3.65,2.74-4.83,5.5-4.9,11.2-9.59,16.89-14.26,1.89-1.55,2.68-3.31,2.63-5.79-.13-6.5-.12-13,.12-19.49.06-1.5.89-3.4,2.02-4.37,6.45-5.52,13-10.94,19.76-16.08,1.5-1.14,3.95-1.4,5.97-1.44,9.24-.15,18.48-.06,27.72-.06-.13-.24-.25-.47-.38-.71h0Z"/>
    <path class="cls-1" d="m350.05,96.23c0,8.12.08,16.24-.05,24.36-.04,2.35.63,3.73,2.67,5.12,6.51,4.43,8.2,14.26,3.79,20.29-4.9,6.71-14.3,8.35-21.02,3.68-6.58-4.58-8.5-13.79-3.54-20.15,1.99-2.56,5.3-4.55,8.42-5.64,2.57-.9,3.2-1.83,3.19-4.31-.08-15.24-.01-30.48,0-45.73,0-1,.02-2,0-3-.05-2.3.77-4.01,3.28-4.14,2.8-.15,3.16,1.85,3.16,4.03v25.48h.1Zm-13.34,41.4c0,4.21,3.3,7.6,7.5,7.68,3.84.07,7.33-3.17,7.44-6.91.11-3.95-3.57-7.83-7.46-7.86-4.36-.03-7.48,2.93-7.48,7.09h0Z"/>
    <path class="cls-1" d="m464.35,321.75c-19.5,0-39,0-58.5.01-2.36,0-4.92.07-4.81-3.15.1-3,2.39-3.74,5.06-3.73,39.25.02,78.49.04,117.74.02,2.62,0,4.61.84,4.66,3.64.05,2.89-2.24,3.17-4.53,3.17h-59.62v.06-.02Z"/>
    <path class="cls-1" d="m488.14,161.72c-.73,1.76-1.19,3.05-1.8,4.27-15.24,30.33-30.5,60.64-45.78,90.95-.55,1.09-1.2,2.47-2.18,2.93-1.17.55-2.99.74-4.05.18-.83-.45-1.43-2.35-1.25-3.46.3-1.79,1.23-3.52,2.07-5.18,14.56-28.99,29.15-57.98,43.75-86.95.84-1.66,1.66-3.46,2.95-4.73.87-.86,2.76-1.52,3.8-1.14,1.1.4,1.73,2.11,2.48,3.15v-.02Z"/>
    <path class="cls-1" d="m156.68,257.73c-.9.88-1.72,2.38-2.67,2.46-1.22.11-3.08-.57-3.71-1.53-2.13-3.22-3.92-6.67-5.69-10.11-13.65-26.55-27.26-53.11-40.86-79.68-.79-1.55-1.9-3.18-1.96-4.81-.07-1.71.92-3.47,1.45-5.21,1.62.79,3.79,1.18,4.74,2.46,1.83,2.48,2.99,5.46,4.41,8.24,14.15,27.83,28.3,55.67,42.43,83.51.67,1.31,1.11,2.74,1.88,4.66h-.02Z"/>
    <path class="cls-1" d="m118.69,301.28h-53.18c-2.4,0-5.21.24-5.09-3.27.11-3.11,2.52-3.51,5.14-3.51,35.45.02,70.9,0,106.35-.03,2.21,0,4.39.07,5.08,2.73.65,2.51-1.14,4.04-4.75,4.05-17.85.02-35.7,0-53.55,0v.03h0Z"/>
    <path class="cls-1" d="m89.7,202.98v-21.37c0-1-.37-2.23.08-2.94.8-1.28,2.1-2.24,3.19-3.33,1.05,1.15,2.94,2.26,3,3.45.32,6.98.3,13.97.19,20.96-.04,2.55.42,4.2,2.88,5.72,5.53,3.4,7.84,10.01,6.23,15.94-1.63,6.01-6.53,10.37-12.36,11.01-6.58.72-12.37-2.5-15.31-8.49-3.58-7.33.66-17.36,8.46-19.92,1.17-.39,2.37-.67,3.64-1.02h0Zm1.19,7.39c-4.03.06-7.22,3.47-7.12,7.62.09,3.96,3.6,7.32,7.6,7.27,4.05-.05,7.33-3.51,7.18-7.57-.14-3.79-3.89-7.38-7.66-7.32h0Z"/>
    <path class="cls-1" d="m499.65,189.87c0,1.5.08,3-.02,4.49-.34,5.1-.23,9.05,6.26,11.26,7.02,2.39,9.05,11.75,5.52,18.93-3.38,6.88-12.26,9.71-19.69,6.29-6.95-3.2-10.68-11.47-7.43-18.1,1.54-3.15,4.8-5.44,7.17-8.21.85-.99,1.94-2.23,1.97-3.37.18-7.23.12-14.47.07-21.71-.01-2.31.27-4.52,3.11-4.58,3.02-.07,3.04,2.27,3,4.52-.05,3.49-.01,6.99-.01,10.48h.05Zm6.09,27.97c.08-3.94-3.59-7.82-7.44-7.86-4.01-.03-7.63,3.54-7.7,7.59-.06,3.8,3.44,7.43,7.3,7.55,4.22.14,7.75-3.14,7.83-7.29h.01Z"/>
    <path class="cls-1" d="m90,391.34c0-.75-.06-1.5,0-2.25.44-4.51.08-7.92-5.31-10.04-5.83-2.3-8.43-9.99-6.83-15.91,1.84-6.8,7.32-11.02,14.28-10.99,6.99.03,12.22,4.14,14.16,11.13,1.67,6-1.05,13.05-6.79,16-2.73,1.4-3.39,3.01-3.24,5.79.25,4.48.15,8.98.25,13.48.06,2.57-.72,4.68-3.59,4.65-2.63-.03-2.95-2.26-2.97-4.36-.03-2.5,0-4.99,0-7.49h.04,0Zm9.58-24.59c.09-3.77-3.37-7.12-7.5-7.25-4.16-.13-7.39,2.67-7.56,6.55-.19,4.28,3.21,8.02,7.44,8.2,4.1.17,7.52-3.19,7.63-7.51h-.01Z"/>
    <path class="cls-1" d="m170.34,476.01c1.04-3.09-1.04-4.88-4.21-6.73-7-4.09-9.3-11.73-6.21-18.75,2.84-6.45,10.3-9.88,17.55-8.06,6.84,1.71,11.51,8.29,10.75,15.54-.55,5.29-3.14,9.58-8,11.88-3,1.42-3.63,3.34-3.06,6.23.29,1.47.39,2.97.57,4.45.24,1.98.83,4.15-1.93,4.89-1.98.53-5.07-1.8-5.43-4.17-.22-1.46-.04-2.99-.04-5.28h0Zm3.96-26.53c-4.23-.24-8.21,2.99-8.39,6.82s3.51,7.88,7.36,8.07c3.69.18,7.63-3.31,7.94-7.04.32-3.79-3.06-7.63-6.91-7.85h0Z"/>
    <path class="cls-1" d="m430.48,279.74h-6.75c-1.93,0-3.95-.61-3.44-2.81.32-1.37,2.13-3.18,3.49-3.38,3.3-.48,6.75.11,10.09-.25,1.9-.2,4.19-.96,5.45-2.28,8.73-9.11,17.3-18.37,25.79-27.71,2.34-2.58,4.73-4.06,8.41-3.81,4.73.33,9.49.07,14.24.06,2.31,0,4.54.51,4.61,3.24.08,2.94-2.35,3.09-4.56,3.11-3.25.03-6.54.34-9.74-.04-4.85-.59-8.2,1.27-11.32,4.85-6.4,7.35-13.17,14.37-19.71,21.59-6.64,7.33-6.59,7.37-16.55,7.42h0Z"/>
    <path class="cls-1" d="m422,383.76c8.16-.06,15.19,6.76,15.22,14.78.03,8.16-6.69,14.89-15.02,15.03-8.16.14-14.79-6.38-14.85-14.6-.06-8.47,6.37-15.15,14.65-15.21h0Zm-.29,7.25c-4.03.09-7.16,3.43-7.1,7.58.06,4.33,3.78,7.81,8.34,7.8,3.81,0,6.8-3.24,6.81-7.37,0-4.49-3.63-8.11-8.05-8.02h0Z"/>
    <path class="cls-1" d="m168.12,386.35c-.13,8.05-6.98,14.72-15.02,14.63-8.36-.1-14.73-6.84-14.51-15.37.21-8.16,6.65-14.55,14.62-14.51,7.92.04,15.04,7.33,14.91,15.25Zm-7.25-.25c-.08-4.16-3.55-7.52-7.76-7.53-4.28,0-7.51,3.41-7.32,7.75.17,3.98,3.9,7.43,7.99,7.41,3.97-.02,7.17-3.47,7.09-7.63Z"/>
    <path class="cls-1" d="m489.13,415.15c-.03,7.56-6.78,14.13-14.58,14.19-8.04.07-14.64-6.27-14.58-14,.06-8.77,6.34-15.49,14.49-15.5,8.2-.02,14.71,6.78,14.68,15.31h0Zm-14.4,6.95c3.78,0,7.33-3.33,7.44-6.97.11-3.95-3.63-7.6-7.72-7.53-3.92.07-7.06,3.25-7.12,7.21-.06,3.99,3.29,7.28,7.4,7.29h0Z"/>
    <path class="cls-1" d="m372.58,72.32c7.85.09,15.13,7.26,14.97,14.75-.17,7.82-7.25,14.81-14.99,14.79-7.77-.02-14.58-6.91-14.46-14.63.14-8.53,6.42-15,14.47-14.91h0Zm7.6,15.11c0-4.18-3.76-7.88-7.9-7.79-3.86.09-6.98,3.32-7.03,7.26-.05,4.24,3.23,7.69,7.4,7.76,3.94.07,7.53-3.39,7.53-7.24h0Z"/>
    <path class="cls-1" d="m164.26,422.58c3.49,0,7.03-.3,10.46.15,1.39.18,2.57,2,3.84,3.07-1.26,1.1-2.47,3.07-3.78,3.14-5.72.32-11.48-.11-17.2.17-2,.1-4.2,1.13-5.86,2.34-7.21,5.26-10.48,12.25-8.78,21.3.34,1.81.52,3.89-.04,5.56-.54,1.6-2.14,2.84-3.28,4.24-1.21-1.34-3.37-2.62-3.45-4.02-.36-6.22-.23-12.47,0-18.7.05-1.29,1.14-2.73,2.12-3.76,3.33-3.54,6.95-6.82,10.22-10.42,2.2-2.42,4.62-3.47,7.89-3.14,2.59.26,5.24.05,7.86.05v.02h0Z"/>
    <path class="cls-1" d="m244.59,487.79v19.83c0,2.21-.12,4.59-3.03,4.67-3,.08-3.52-2.19-3.52-4.65-.01-13.47-.03-26.94-.06-40.4,0-2.27.67-4.08,3.28-4.04,2.5.04,3.34,1.65,3.31,4.02-.06,6.86-.02,13.72-.02,20.58h.04,0Z"/>
    <path class="cls-1" d="m350.68,487.67c0,6.85-.01,13.71,0,20.56,0,2.17-.33,4.2-3.01,4.27-2.76.07-3.49-1.78-3.49-4.24.03-13.34,0-26.67,0-40.01,0-.62-.16-1.45.17-1.83,1.05-1.2,2.29-2.22,3.45-3.31.95,1.2,2.65,2.37,2.72,3.62.3,5.59.14,11.21.15,16.82v4.11h-.01.02Z"/>
    <path class="cls-1" d="m510.53,301.32c-4.62,0-9.25-.03-13.87.01-2.48.02-4.82-.5-4.91-3.36-.09-2.91,2.19-3.5,4.71-3.48,9,.06,17.99.06,26.99.09.62,0,1.47-.21,1.83.11,1.26,1.12,2.35,2.43,3.51,3.66-1.21.98-2.38,2.72-3.65,2.8-4.85.33-9.74.13-14.61.13v.03h0Z"/>
    <path class="cls-1" d="m209.24,478.02c0-3.49.04-6.98-.01-10.47-.03-2.33.84-4.04,3.29-4.1,2.54-.06,3.35,1.74,3.33,4.02-.04,7.11-.06,14.21-.11,21.32-.02,2.33-.77,4.7-3.39,4.27-1.22-.2-2.74-2.64-2.93-4.21-.44-3.56-.14-7.21-.14-10.83h-.04,0Z"/>
    <path class="cls-1" d="m239.31,186.67c0-2.49.03-4.98,0-7.47-.04-2.29.8-4.1,3.23-4.19,2.45-.09,3.43,1.65,3.44,3.95.01,5.23.05,10.45-.02,15.68-.03,2.14-.65,4.11-3.34,4.01-2.57-.09-3.23-1.99-3.29-4.15-.06-2.61-.01-5.23-.02-7.84h0Z"/>
    <path class="cls-1" d="m334.61,506.63c0,2.24.06,4.48-.02,6.72-.07,2.26-1.12,4.27-3.52,3.71-1.27-.3-2.86-2.36-2.99-3.75-.38-4.07-.12-8.2-.06-12.31.03-2.33.83-4.45,3.45-4.49,2.81-.04,3.19,2.24,3.18,4.52-.01,1.87,0,3.73,0,5.6h-.04Z"/>
    <path class="cls-1" d="m261.63,507.57c0,1.86.37,3.83-.11,5.56-.42,1.49-1.81,2.71-2.78,4.04-1.31-1.11-3.65-2.14-3.73-3.33-.34-4.81-.15-9.68.25-14.49.08-1,2.15-2.77,2.85-2.58,1.26.35,2.87,1.79,3.11,3.02.48,2.51.14,5.18.14,7.78h.28-.01Z"/>
    <path class="cls-1" d="m149.39,341.96c-1.17-1.48-3.09-2.84-3.34-4.45-.38-2.51,1.45-4.14,4.17-4.15,2.46-.01,4.51,1.24,4.13,3.7-.28,1.76-2.11,3.28-3.26,4.91h-1.7Z"/>
    <path class="cls-1" d="m526.13,246.59c-1.56.99-3.02,2.57-4.69,2.83-2.44.37-3.9-1.42-3.81-3.91.1-2.62,1.78-4.43,4.28-3.96,1.58.3,2.87,2.18,4.29,3.35-.02.57-.05,1.13-.07,1.7h0Z"/>
    <path class="cls-1" d="m63.23,244.91c1.47-1.11,3.08-3.25,4.38-3.08,1.58.21,2.9,2.37,4.33,3.69-1.33,1.36-2.51,3.57-4.02,3.83-1.36.23-3.07-1.7-4.63-2.68-.02-.59-.04-1.17-.06-1.76Z"/>
    <path class="cls-1" d="m523.49,257.29c1.82,2.57,3.54,3.93,3.69,5.45.26,2.65-1.88,4.28-4.34,3.72-1.51-.35-3.87-2.5-3.7-3.45.31-1.71,2.24-3.13,4.35-5.71h0Z"/>
    <path class="cls-1" d="m478.82,292.27c3.53.78,4.98,2.55,4.47,4.78-.34,1.49-2.19,3.49-3.61,3.71-2.4.36-4.51-1.44-4.03-4.08.29-1.61,2.06-2.95,3.16-4.41h.01Z"/>
    <path class="cls-1" d="m187.77,484.09c1.46-.97,2.83-2.55,4.4-2.78,2.42-.36,4.08,1.38,4.02,3.84s-1.79,4.11-4.2,3.63c-1.55-.31-2.85-1.9-4.27-2.92.01-.59.03-1.18.04-1.77h.01Z"/>
    <path class="cls-1" d="m525.19,276.67c.98,1.46,2.6,2.83,2.81,4.39.33,2.41-1.42,4.01-3.91,3.97-2.39-.04-4.4-1.47-3.93-3.92.32-1.65,2.16-3.01,3.32-4.49.57.02,1.14.04,1.71.06h0Z"/>
    <path class="cls-1" d="m64.11,285.46c-.98-1.55-2.84-3.18-2.7-4.62.13-1.34,2.22-3.2,3.73-3.53,2.34-.52,4.32,1.21,3.86,3.7-.3,1.63-2,3.01-3.07,4.5-.61-.01-1.21-.03-1.82-.04h0Z"/>
    <path class="cls-1" d="m126.27,436.42c.9,1.64,2.5,3.29,2.47,4.91-.02,1.17-2.1,3.03-3.48,3.26-2.22.37-4.43-1.12-3.97-3.65.31-1.68,2.08-3.09,3.2-4.62.59.03,1.18.06,1.77.09h0Z"/>
    <path class="cls-1" d="m467.24,441.61c-1.47.95-3.08,2.81-4.37,2.61-1.42-.22-3.32-2.18-3.62-3.67-.49-2.44,1.58-4.14,3.9-3.77,1.51.24,2.78,2.01,4.15,3.1-.02.58-.05,1.15-.07,1.73h0Z"/>
    <path class="cls-1" d="m300.14,514.66c-2.49,1.62-3.97,3.33-5.18,3.15-1.33-.19-3.51-2.29-3.35-3.24.24-1.48,2.01-3.57,3.36-3.76,1.2-.17,2.71,1.9,5.17,3.84h0Z"/>
  </g>
</svg>