<?xml version="1.0" encoding="UTF-8"?>
<svg id="_Слой_1" data-name="Слой 1" xmlns="http://www.w3.org/2000/svg" viewBox="0 0 957 830">
  <defs>
    <style>
      .cls-1 {
        fill: #3e5eb0;
      }

      .cls-1, .cls-2, .cls-3 {
        fill-rule: evenodd;
      }

      .cls-2 {
        fill: #060709;
      }

      .cls-3 {
        fill: #3e5eb1;
      }
    </style>
  </defs>
  <path class="cls-2" d="m0,0h957v830H0V0Z"/>
  <path class="cls-3" d="m796,706c35.3-48.38,54.46-102.71,57.5-163,3.02-54.18-5.31-106.51-25-157-26.52-68.23-66.35-127.4-119.5-177.5-77.03-66.67-166.36-93.67-268-81-84.86,14.66-154.36,55.16-208.5,121.5-57.78,68.25-92.78,146.92-105,236-6.91,65.42,4.42,127.42,34,186,7.02,12.06,14.52,23.73,22.5,35-56.68-68.16-87.85-146.82-93.5-236-3.75-125.62,39.75-231.46,130.5-317.5,101.47-87.63,218.47-119.29,351-95,124.78,29.27,216.95,100.43,276.5,213.5,49.01,102.96,54.67,208.3,17,316-16.49,43.89-39.65,83.55-69.5,119Z"/>
  <path class="cls-3" d="m464,214c106.07-3.54,190.24,37.13,252.5,122,54.61,84.77,63.28,174.1,26,268-36.66,81.93-98.16,135.43-184.5,160.5-111.69,25.55-206.52-3.28-284.5-86.5-64.7-79.47-83.37-168.8-56-268,31.17-91.17,92.33-152.33,183.5-183.5,20.71-6.31,41.71-10.48,63-12.5Z"/>
  <path class="cls-2" d="m474,289c83.12-.87,146.28,33.79,189.5,104,35.31,67.26,35.31,134.59,0,202-40.76,66.57-100.42,101.23-179,104-78.11-3.04-137.44-37.7-178-104-36.44-70.47-35.1-140.14,4-209,38.8-58.65,93.3-90.99,163.5-97Z"/>
  <path class="cls-1" d="m583,564c12.5-25.5,13.34-51.5,2.5-78-10.48-26.13-26.65-47.97-48.5-65.5-41.27-23.65-78.44-18.48-111.5,15.5-20.14,22.29-32.81,48.29-38,78-1.9,17.7,1.26,34.37,9.5,50-15.13-18.18-23.96-39.18-26.5-63-2.67-54.32,19.83-94.49,67.5-120.5,46.24-19.74,89.24-14.41,129,16,42.05,39.03,53.22,85.53,33.5,139.5-4.51,10.3-10.34,19.64-17.5,28Z"/>
</svg>