<?xml version="1.0" encoding="UTF-8"?>
<svg id="_Слой_1" data-name="Слой 1" xmlns="http://www.w3.org/2000/svg" viewBox="0 0 768 768">
  <defs>
    <style>
      .cls-1 {
        fill: #fff;
      }
    </style>
  </defs>
  <path d="m768,768H0V0c256,0,512,0,768,0v768ZM89.9,374.28c-.03,45.39,6.52,82.56,22.16,117.62,26.85,60.19,67.74,108.02,126.17,139.9,43.41,23.68,89.73,36.93,139.2,38.47,50.12,1.56,97.54-9.79,142.23-32.05,60.48-30.12,105.1-76.33,133.33-137.5,23.42-50.73,31.25-104.29,22.73-159.85-7.04-45.97-23.29-88.24-51.05-125.82-36.64-49.61-83.56-85.45-141.81-106.22-48.9-17.43-98.96-21.86-149.89-12.03-78.76,15.21-142.39,54.96-189.71,120.01-35.63,48.98-52.27,104.25-53.36,157.45Z"/>
  <path class="cls-1" d="m89.9,374.28c1.09-53.2,17.73-108.47,53.36-157.45,47.33-65.05,110.95-104.8,189.71-120.01,50.93-9.84,100.99-5.4,149.89,12.03,58.25,20.77,105.18,56.61,141.81,106.22,27.76,37.58,44,79.85,51.05,125.82,8.51,55.56.68,109.11-22.73,159.85-28.23,61.16-72.85,107.37-133.33,137.5-44.69,22.26-92.11,33.61-142.23,32.05-49.47-1.54-95.79-14.79-139.2-38.47-58.43-31.87-99.33-79.7-126.17-139.9-15.64-35.06-22.19-72.22-22.16-117.62Zm296.49,283.74c6.61-.32,14.6-.61,22.58-1.14,4.48-.3,8.96-.87,13.4-1.53,53.56-7.96,101.93-28,143.97-62.44,23.67-19.39,43.78-42.11,59.87-68.13,20.53-33.19,32.69-69.4,37.83-108.11,6.57-49.48-.55-97.14-20.19-142.63-24.18-56.04-63.62-99.13-116.28-129.84-53.52-31.2-111.07-44.97-173.01-37.64-38.01,4.49-73.89,15.93-107.43,34.52-38.24,21.19-69.84,49.68-95.21,85.29-31.64,44.41-47.38,94.02-49.11,148.23-.83,25.86,1.91,51.42,8.59,76.48,14.93,55.99,45.5,102.1,89.14,139.69,26.15,22.53,56.27,38.27,88.67,49.89,30.98,11.12,62.86,17.05,97.19,17.37Z"/>
  <path d="m386.39,658.03c-34.33-.32-66.2-6.25-97.19-17.37-32.39-11.62-62.52-27.36-88.67-49.89-43.63-37.6-74.21-83.71-89.14-139.69-6.68-25.06-9.41-50.62-8.59-76.48,1.73-54.21,17.48-103.82,49.11-148.23,25.37-35.61,56.97-64.1,95.21-85.29,33.55-18.59,69.42-30.02,107.43-34.52,61.94-7.32,119.49,6.44,173.01,37.64,52.66,30.71,92.1,73.8,116.28,129.84,19.63,45.49,26.75,93.15,20.19,142.63-5.14,38.71-17.3,74.92-37.83,108.11-16.09,26.02-36.2,48.74-59.87,68.13-42.04,34.44-90.41,54.48-143.97,62.44-4.45.66-8.92,1.24-13.4,1.53-7.98.53-15.97.82-22.58,1.14Zm-254.07-276.61c.72,10.09.92,20.25,2.24,30.26,6.41,48.7,25.48,91.89,57.18,129.45,21.86,25.9,48.4,45.79,78.76,60.57,41.96,20.42,86.22,30.22,132.92,26.53,47.46-3.75,90.86-19.29,129.9-46.8,21.02-14.81,39.85-32.05,54.74-52.91,26.75-37.46,43.82-78.9,47.41-125.27,3.04-39.21-1.35-77.29-16.89-113.77-21.99-51.61-57.22-91.56-105.33-120.26-48.12-28.7-100.27-40.58-155.72-33.74-72.74,8.96-132.29,42.37-176.54,101.44-32.03,42.75-48.76,90.78-48.67,144.51Z"/>
  <path class="cls-1" d="m132.32,381.42c-.09-53.73,16.65-101.76,48.67-144.51,44.25-59.07,103.79-92.47,176.54-101.44,55.46-6.83,107.6,5.04,155.72,33.74,48.11,28.7,83.34,68.65,105.33,120.26,15.55,36.48,19.93,74.57,16.89,113.77-3.59,46.37-20.66,87.81-47.41,125.27-14.89,20.86-33.71,38.09-54.74,52.91-39.05,27.51-82.44,43.05-129.9,46.8-46.7,3.69-90.97-6.11-132.92-26.53-30.36-14.78-56.9-34.66-78.76-60.57-31.71-37.57-50.77-80.76-57.18-129.45-1.32-10.01-1.52-20.17-2.24-30.26Zm258.34,237.23c9.1-.97,23.66-1.6,37.84-4.22,35.35-6.53,67.9-20.38,97.37-40.95,31.64-22.08,57.12-49.63,74.62-84.46,21.82-43.43,30.72-89.08,24.86-137.33-4.62-37.98-19.37-72.2-40.94-103.53-21.09-30.62-48.86-53.98-80.92-72.34-46.96-26.9-97.56-36.45-151-29.23-51.15,6.91-95.41,29.27-133.8,63.42-17.49,15.56-31.67,33.92-43.64,54.03-15.89,26.72-26.94,55.25-30.89,86.15-5.62,43.88.6,86.11,18.83,126.58,15.86,35.23,38.74,64.85,69.31,88.45,45.04,34.78,96.17,52.14,158.37,53.43Z"/>
  <path d="m390.66,618.65c-62.21-1.29-113.33-18.65-158.37-53.43-30.56-23.6-53.44-53.22-69.31-88.45-18.23-40.47-24.45-82.7-18.83-126.58,3.96-30.9,15-59.43,30.89-86.15,11.96-20.11,26.14-38.47,43.64-54.03,38.39-34.14,82.65-56.51,133.8-63.42,53.44-7.22,104.04,2.33,151,29.23,32.05,18.36,59.83,41.72,80.92,72.34,21.58,31.33,36.33,65.55,40.94,103.53,5.87,48.25-3.04,93.89-24.86,137.33-17.49,34.83-42.98,62.38-74.62,84.46-29.47,20.57-62.02,34.42-97.37,40.95-14.19,2.62-28.74,3.25-37.84,4.22Zm-6.63-34.32l1.37-.25c55.81-112.75,111.63-225.5,167.72-338.81-19.25,0-37.61-.04-55.97.1-.98,0-2.36,1.26-2.85,2.28-11.71,23.89-23.31,47.84-34.96,71.76-21.72,44.59-43.45,89.17-65.19,133.76-2.89,5.92-5.84,11.81-9.07,18.33-.91-1.65-1.53-2.69-2.07-3.77-15.01-30.48-30.01-60.96-45.03-91.44-21.2-43.02-42.39-86.05-63.7-129.01-.52-1.05-2.38-2.04-3.62-2.05-17.37-.1-34.75-.02-52.12.03-.91,0-1.82.16-2.66.24,56.14,113.13,112.15,225.98,168.16,338.83Zm4.68-178.56c-.26-.06-.52-.12-.78-.18,0-13.44-.05-26.89.09-40.33.01-1.16,1.11-2.44,1.97-3.44,4.94-5.8,9.99-11.51,14.92-17.33.93-1.09,2.06-2.49,2.1-3.77.22-7.74.22-15.5.06-23.24-.02-1.05-1.18-2.55-2.18-2.96-.84-.35-2.61.25-3.24,1.02-.77.94-1.06,2.5-1.08,3.8-.1,5.87-.01,11.75-.06,17.62,0,1.09.06,2.5-.55,3.22-4.99,5.98-10.13,11.83-15.28,17.78-4.85-5.53-9.38-10.53-13.69-15.7-1.01-1.21-1.79-3-1.85-4.55-.25-6.24-.17-12.49-.21-18.74-.01-2.23-.14-4.61-3.09-4.59-2.98.02-3.45,2.3-3.45,4.77-.01,6.62-.21,13.25-.02,19.87.05,1.84.76,4.01,1.92,5.4,4.63,5.57,9.7,10.77,14.28,16.38,1.44,1.76,2.57,4.34,2.62,6.57.24,10.49.06,20.99.03,31.49,0,2.36,0,4.71,0,7.78-.74-1.25-1.15-1.85-1.47-2.5-15.83-32.29-31.6-64.6-47.49-96.86-13.74-27.9-27.63-55.72-41.37-83.62-1.31-2.65-2.85-3.82-6-3.74-10.74.26-21.49.07-32.24.26-2.53.05-4.14-.78-5.77-2.6-2.84-3.16-5.92-6.1-8.97-9.05-1.77-1.71-3.87-2.08-5.59-.09-1.68,1.95-.64,3.71,1.07,5.15,2.34,1.97,4.69,3.92,7.64,6.4-2.01.1-3.21.22-4.42.22-5.75,0-11.5,0-17.25-.06-2.49-.03-3.78,1.15-3.75,3.6.02,2.29,1.39,3.35,3.6,3.42.62.02,1.25.01,1.87.01,19.5-.03,38.99.05,58.49-.2,3.55-.05,5.29,1.06,6.81,4.15,18.23,36.96,36.59,73.86,54.92,110.77,13.5,27.18,27,54.35,40.53,81.52.73,1.47,1.74,2.81,2.94,4.74,1.19-1.87,2.08-3.04,2.74-4.34,9.54-18.96,19.19-37.87,28.55-56.93,22.36-45.5,44.6-91.06,66.8-136.64,1.16-2.38,2.48-3.23,5.11-3.21,19.49.12,38.99.09,58.49.11,1.12,0,2.5.39,3.32-.11,1.5-.92,2.68-2.37,3.99-3.61-1.37-.98-2.67-2.66-4.13-2.81-4.34-.43-8.73-.27-13.11-.31-2.77-.03-5.54,0-8.3,0-.04-.38-.08-.76-.11-1.14,2.77-2.07,5.68-3.97,8.24-6.28.96-.87,1.08-2.66,1.59-4.02-1.55-.48-3.07-1.21-4.65-1.34-.79-.07-1.77.85-2.5,1.5-3.26,2.92-6.34,6.04-9.72,8.79-1.4,1.14-3.4,2.13-5.14,2.15-10.62.17-21.25.14-31.87-.04-2.77-.05-4.39.9-5.58,3.34-5.18,10.67-10.48,21.29-15.72,31.93-20.95,42.59-41.89,85.18-62.83,127.77-3.74,7.6-7.45,15.21-11.18,22.82Zm184.89,47.69c-1.99,9.08.25,13.95,7.49,18.33,1.09.66,2.1,2.38,2.16,3.66.22,5.11.04,10.24.03,15.37,0,2.22.61,4.15,3.24,4.11,2.57-.04,3.23-1.88,3.19-4.16-.07-4.87,0-9.75-.15-14.62-.06-2.03.47-3.03,2.59-3.75,8.35-2.81,12.13-11.99,8.53-20.13-3.45-7.81-12.83-10.75-20.61-6.62-1.56.83-3.49,1.39-5.24,1.39-19.5,0-39-.06-58.5-.28-2.92-.03-5,.84-6.89,2.92-8.66,9.52-17.34,19.03-26.1,28.47-1.9,2.04-2.74,4.19-2.72,7.03.07,11.37-.03,22.75-.23,34.12-.03,1.6-.63,3.47-1.61,4.72-3.01,3.83-5.95,7.85-9.61,10.99-6.13,5.28-8.72,11.5-7.47,19.44.46,2.95-.62,5.05-3.12,6.99-4.71,3.66-6.17,10.35-4.09,16.01,2.14,5.83,7.02,9.5,12.97,9.76,6.68.29,11.67-2.89,14.42-8.71,3.41-7.23.26-18.17-9.91-20.13-1.33-.26-3.64-1.14-3.63-1.71.08-4.57-1.61-9.37,2.29-13.51,4.79-5.09,9.23-10.53,13.58-16,1.22-1.53,2.22-3.71,2.28-5.62.34-11.49.27-23,.59-34.49.05-1.92.88-4.21,2.13-5.64,7.47-8.57,15.1-17.02,22.88-25.31,1.26-1.34,3.56-2.34,5.4-2.38,13.62-.25,27.25-.21,40.87-.26,4.98-.02,9.96,0,15.24,0Zm-365.53-39.89c2.07,0,3.4,0,4.73,0,19.87-.04,39.74-.1,59.6-.1,2.66,0,5-.51,5.05-3.61.06-3.4-2.61-3.35-5.09-3.35-38.36.05-76.72.09-115.09.16-1.48,0-3.15-.07-4.38.57-.98.51-2.01,2.09-1.95,3.12.07,1.03,1.31,2.3,2.36,2.84,1.01.52,2.44.28,3.69.28,12.37-.01,24.74.02,37.11-.12,2.79-.03,4.89.62,6.94,2.7,9.02,9.17,18.83,17.65,27.17,27.39,6.05,7.06,12.58,10.13,21.59,9.23,1.74-.17,4.1,1.03,5.42,2.36,8,8.07,15.84,16.3,23.58,24.63,1.14,1.23,1.97,3.24,2.01,4.91.24,10.49.42,20.99.14,31.48-.08,3.23.98,5.33,2.87,7.65,1.1,1.35,1.91,3.53,1.72,5.2-.72,6.33,1.63,11.11,6.81,14.36,5.5,3.45,11.26,3.04,16.61-.49,6.43-4.25,7.86-13.57,3.35-20.39-4.15-6.26-12.61-8.21-18.83-4.46-1.22.73-3.53,1.73-3.96,1.28-1.13-1.18-2.07-3.08-2.1-4.71-.21-10.99-.09-21.99-.27-32.99-.03-1.55-.78-3.42-1.83-4.55-7.04-7.62-14.59-14.78-21.28-22.68-5.11-6.03-10.8-9.25-18.72-8.05-3.4.52-5.86-1-8.22-3.38-8.78-8.88-17.72-17.61-26.59-26.41-.67-.67-1.24-1.45-2.43-2.88Zm343.67,18.74c17.12,0,34.23,0,51.35,0,2.75,0,5.55.27,8.22-.21,1.31-.24,2.35-1.91,3.51-2.94-1.12-1.11-2.07-2.71-3.41-3.21-1.54-.57-3.45-.17-5.2-.17-37.98.03-75.97.22-113.95-.08-5.57-.04-8.27,1.72-10.6,6.46-26.97,54.77-54.11,109.46-81.18,164.19-1.22,2.46-2.67,4.91-3.24,7.53-.31,1.42.54,3.83,1.68,4.67,1.92,1.4,3.84.06,4.88-1.91,1.1-2.09,1.89-4.35,2.93-6.47,8.73-17.82,17.41-35.66,26.24-53.43,18.38-37.01,36.87-73.98,55.23-111,1.3-2.61,2.91-3.52,5.81-3.5,19.24.12,38.48.06,57.72.07Zm-283.12-6.49s0,.06,0,.09c-4,0-8,.06-11.99-.02-2.67-.05-4.58.94-4.5,3.74.08,2.73,2.4,2.77,4.46,2.76,6.25-.03,12.5.07,18.74-.2,3.13-.13,4.65,1.16,5.97,3.85,9.99,20.41,20.14,40.74,30.2,61.11,17.86,36.15,35.71,72.32,53.54,108.49.95,1.93,1.97,3.7,4.49,2.76,2.62-.98,3.07-3.08,2.23-5.53-.4-1.18-.98-2.3-1.52-3.42-7.23-14.95-14.34-29.95-21.73-44.82-15.78-31.75-31.72-63.43-47.58-95.14-4.97-9.94-9.95-19.87-14.89-29.82-1.36-2.75-3.33-4.1-6.55-3.9-3.61.22-7.24.05-10.87.05Zm146.06-145.78c-.18.23-.37.46-.55.69-.08-.23-.24-.46-.24-.69-.12-30.61-.25-61.22-.21-91.83,0-1.09,1.45-2.68,2.6-3.19,5.62-2.46,8.49-6.91,9.28-12.68.75-5.57-1.79-10.04-6.08-13.35-6.66-5.14-15.85-3.56-20.42,3.28-4.92,7.38-2.67,17.51,4.99,21.81,2.08,1.17,3.41,2.13,3.39,4.98-.14,28.61-.15,57.23.02,85.84.02,4.12-.61,6.86-4.45,9.43-6.51,4.36-7.4,13.6-2.79,19.62,4.85,6.34,14.34,8,20.45,3.58,6.89-4.99,8.61-13.41,3.38-20.04-2.4-3.05-6.21-5-9.37-7.45Zm119.54,248.05c0,6.28-.01,12.13,0,17.99,0,1.87-.3,3.88.3,5.56.44,1.22,2.2,2.82,3.24,2.73,1.07-.09,2.14-1.93,2.89-3.2.38-.65.07-1.71.07-2.58-.01-19.23-.08-38.47.06-57.7.01-1.9.88-4.16,2.11-5.61,3.73-4.36,7.79-8.44,11.8-12.55,1.75-1.8,3.01-3.78.81-5.77-2.17-1.97-4.15-.51-5.79,1.26-3.13,3.39-5.98,7.12-9.45,10.12-5.11,4.42-6.58,9.7-6.24,16.26.46,8.79.11,17.63.11,26.67-9.18,0-18.15.02-27.12,0-4.45-.01-5.19.68-5.21,5.2-.02,4,.15,8-.05,11.99-.05,1.08-.89,2.53-1.81,3.11-9.74,6.1-10.53,18.66-1.29,25.29,2.39,1.71,4.2,2.92,3.33,6.35-.6,2.35,1.31,3.68,3.54,3.88,2.46.22,3.69-1.25,3.83-3.6.07-1.21-.1-2.44-.17-3.84,7.78-1.91,12.09-6.93,12.11-14.91.02-8.36-5.11-12.83-12.8-14.89v-11.73h25.72Zm-350.28-170.42c-.19,3.29-.8,6.04-.4,8.65.85,5.58,4.58,9.09,9.75,10.85,5.79,1.97,11.19.91,15.59-3.44,1.85-1.83,3.72-2.48,6.28-2.45,13.12.16,26.24.13,39.35.2,2.34.01,4.06-.79,4-3.33-.05-2.32-1.68-3.1-3.87-3.04-2.87.07-5.76-.15-8.62.09-2.8.24-4.53-.91-6.4-2.9-8.79-9.39-17.74-18.64-26.76-27.81-1.41-1.43-3.45-3.02-5.28-3.13-6.6-.4-13.24-.41-19.85-.05-1.4.08-3.54,2.13-3.84,3.58-.5,2.43,1.82,2.78,3.83,2.77,5.37-.03,10.75-.2,16.11.02,1.66.07,3.67.82,4.84,1.96,8.08,7.81,15.99,15.81,23.93,23.77.37.37.55.92.68,1.14h-20.3c-.34-.79-.51-1-.53-1.23-1.03-12.41-9.96-17.69-21.24-12.6-.97.44-2.12.68-3.18.67-10.24-.11-20.48-.33-30.73-.42-2.62-.02-6.23-.83-6.24,3.31,0,4.1,3.6,3.36,6.22,3.38,8.98.07,17.96.03,26.67.03Zm172.87-77.03c-2.26.66-3.73.97-5.1,1.51-6.48,2.54-10.38,9-9.41,15.44.99,6.52,6.36,11.73,12.77,12.39,6.98.72,13.2-3.17,15.61-9.74,2.28-6.24-.01-13.6-5.78-17.03-2.23-1.32-2.28-2.92-2.28-4.96.08-39.24.14-78.48.19-117.72,0-2.56.52-6.05-3.2-6.04-3.78.02-3.08,3.57-3.08,6.08.07,32.99.18,65.98.28,98.97.02,7.1,0,14.2,0,21.1Zm30.94-33.5s-.05,0-.08,0c0-29.12,0-58.24-.01-87.36,0-1.49.14-3.09-.35-4.44-.39-1.09-1.74-2.73-2.46-2.63-1.21.17-2.52,1.33-3.28,2.43-.55.8-.38,2.16-.38,3.28-.03,58.49-.05,116.98-.06,175.47,0,1.24-.28,2.75.31,3.66.7,1.08,2.22,2.29,3.33,2.23,1.02-.05,2.19-1.57,2.85-2.7.44-.75.12-1.95.12-2.95,0-29,0-57.99,0-86.99Zm-175.49,245.29c-.84,0-1.09.05-1.32,0-7.6-1.82-13.79.92-16.88,7.47-3,6.36-1.27,14.32,3.98,18.33,5.14,3.92,13.41,3.61,18.44-.69,5.72-4.89,6.86-11.76,3.14-18.54-.52-.94-1.05-2.05-1.06-3.08-.07-14.98.02-29.95-.15-44.93-.02-1.9-.82-4.26-2.1-5.61-5.57-5.89-11.33-11.61-17.29-17.11-1.46-1.34-3.9-2.23-5.91-2.27-10.36-.23-20.72-.13-31.09-.14-1.37,0-2.96-.41-4.06.14-1.34.67-2.89,2.04-3.14,3.34-.16.84,1.68,2.41,2.94,3.07.99.52,2.44.19,3.69.18,9.86-.07,19.73-.23,29.59-.17,1.58,0,3.54.56,4.67,1.58,5.08,4.61,9.96,9.46,14.81,14.31.81.81,1.65,2.07,1.66,3.12.11,13.59.07,27.17.07,41.01Zm120.55-277.65c-1.26.46-2.32.8-3.34,1.24-7.92,3.35-11.28,13.3-7.02,20.76,3.25,5.69,9.33,8.45,15.93,7.22,5.98-1.11,10.85-6.16,11.7-12.13.88-6.26-2.52-12.32-8.3-15.39-1.1-.59-2.24-2.25-2.29-3.47-.3-7.35-.18-14.72-.44-22.08-.1-2.96.68-4.66,3.59-6.01,5.31-2.47,8.3-8.46,7.44-14.33-.89-6.1-4.03-10.76-10.09-12.8-7.59-2.56-15.96,1.43-18.78,8.72-2.88,7.45.65,15.47,8.34,18.78,1.75.76,3.36,1.2,3.31,3.75-.14,8.48-.05,16.96-.05,25.74Zm-25.98-3.48c0,10.35,0,20.33,0,30.31,0,2.4.28,4.87,3.28,4.9,3.05.03,3.29-2.42,3.27-4.84-.07-8.99,0-17.99-.2-26.98-.07-2.98.65-4.97,3.18-6.91,7.4-5.69,7.63-17.85-.26-22.52-5.1-3.02-5.31-6.5-4.99-11.09.11-1.62.05-3.25,0-4.87-.06-2.1-.34-4.3-3.07-4.23-2.66.07-3.45,2.01-3.43,4.43.04,4.09.01,8.19.01,12.32-7.84,1.59-11.68,6.42-12.48,13.95-10.84,0-21.43.02-32.02-.06-.66,0-1.69-.68-1.92-1.28-.96-2.57-2.61-3.49-4.89-1.94-2.27,1.54-3.12,4.27-1.06,6.1,2.06,1.82,5.05,3.49,7.69,3.57,10.1.32,20.23-.09,30.34-.06,1.28,0,3.09.59,3.74,1.54,3.02,4.37,6.88,7.17,12.78,7.63Zm264.48,153.6c-1.7-.12-3.07-.08-4.39-.33-4.7-.89-8.05,1.16-11.12,4.48-4.84,5.22-9.83,10.3-14.94,15.25-1.08,1.05-2.97,1.76-4.49,1.77-9.87.06-19.74-.1-29.6-.24-2.53-.04-4.13.91-4.27,3.57-.15,2.72,1.79,3.27,3.91,3.51.86.1,1.75.04,2.62.03,9.74-.01,19.49.12,29.23-.17,2.09-.06,4.59-1.19,6.1-2.65,5.58-5.37,10.79-11.1,16.21-16.64.92-.94,2.17-2.28,3.23-2.26,4.86.11,9.79-1.25,14.53,1.77,5.16,3.29,12.53,2.04,17.09-2.07,4.64-4.19,6.14-10.19,4-16.05-2.19-6-7.89-10.16-13.95-10.18-9.8-.02-16.26,8.95-14.14,20.19Zm-61.35-170.04c.13.24.25.47.38.71-9.24,0-18.48-.08-27.72.06-2.02.03-4.47.29-5.97,1.44-6.75,5.14-13.31,10.56-19.76,16.08-1.13.96-1.96,2.86-2.02,4.37-.24,6.49-.25,13-.12,19.49.05,2.48-.74,4.24-2.63,5.79-5.7,4.67-11.39,9.37-16.89,14.26-1.33,1.19-2.68,3.17-2.74,4.83-.28,7.74-.13,15.49-.08,23.24.01,2.3.14,5.02,3.16,5.02,3.22,0,3.34-2.76,3.34-5.24,0-6.5-.17-13.01.13-19.49.08-1.83,1.08-4.08,2.42-5.32,5.33-4.9,10.91-9.55,16.53-14.13,2.35-1.92,3.31-4.1,3.25-7.11-.13-6.12-.12-12.25.14-18.37.07-1.63.84-3.7,2.02-4.74,4.67-4.14,9.53-8.09,14.55-11.8,1.56-1.15,3.84-1.76,5.82-1.82,8.62-.27,17.25-.14,25.86-.41,2.01-.06,4.41-.62,5.84-1.86,1.22-1.06,1.76-3.45,1.69-5.21-.03-.92-2.14-2.6-3.09-2.46-1.47.22-2.75,1.71-4.11,2.66Zm-70-6.94s-.06,0-.09,0c0-8.49,0-16.99,0-25.48,0-2.19-.35-4.18-3.16-4.03-2.51.13-3.33,1.85-3.28,4.14.02,1,0,2,0,3-.02,15.24-.08,30.48,0,45.73.01,2.49-.62,3.41-3.19,4.31-3.12,1.09-6.43,3.08-8.42,5.64-4.95,6.36-3.04,15.57,3.54,20.15,6.72,4.67,16.11,3.03,21.02-3.68,4.41-6.03,2.72-15.87-3.79-20.29-2.05-1.39-2.71-2.77-2.67-5.12.12-8.12.05-16.24.05-24.36Zm114.3,225.52v-.06c19.87,0,39.75,0,59.62,0,2.28,0,4.57-.28,4.53-3.17-.04-2.79-2.04-3.64-4.66-3.64-39.25.02-78.49,0-117.74-.02-2.67,0-4.96.74-5.06,3.73-.11,3.22,2.45,3.15,4.81,3.15,19.5-.02,39-.01,58.5-.01Zm23.79-160.03c-.76-1.03-1.38-2.75-2.48-3.15-1.03-.37-2.93.29-3.8,1.14-1.29,1.27-2.11,3.07-2.95,4.73-14.6,28.97-29.19,57.96-43.75,86.95-.84,1.67-1.77,3.39-2.07,5.18-.19,1.11.41,3.01,1.25,3.46,1.05.56,2.88.37,4.05-.18.97-.46,1.63-1.83,2.18-2.93,15.28-30.31,30.54-60.62,45.78-90.95.61-1.21,1.06-2.51,1.8-4.27Zm-331.46,96.01c-.77-1.92-1.21-3.34-1.88-4.66-14.13-27.85-28.28-55.68-42.43-83.51-1.42-2.78-2.57-5.76-4.41-8.24-.95-1.29-3.12-1.67-4.74-2.46-.53,1.74-1.53,3.5-1.45,5.21.07,1.63,1.17,3.26,1.96,4.81,13.6,26.57,27.22,53.13,40.86,79.68,1.77,3.44,3.56,6.9,5.69,10.11.64.96,2.49,1.63,3.71,1.53.95-.08,1.78-1.58,2.67-2.46Zm-37.99,43.55v-.03c17.85,0,35.7.01,53.55,0,3.61,0,5.4-1.54,4.75-4.05-.69-2.66-2.87-2.73-5.08-2.73-35.45.02-70.9.05-106.35.03-2.62,0-5.03.41-5.14,3.51-.12,3.51,2.69,3.27,5.09,3.27,17.73,0,35.45,0,53.18,0Zm-28.99-98.3c-1.27.35-2.47.64-3.64,1.02-7.79,2.57-12.04,12.59-8.46,19.92,2.93,6,8.73,9.21,15.31,8.49,5.83-.64,10.73-5,12.36-11.01,1.61-5.94-.71-12.54-6.23-15.94-2.46-1.51-2.92-3.17-2.88-5.72.11-6.99.13-13.98-.19-20.96-.05-1.19-1.95-2.3-3-3.45-1.09,1.09-2.39,2.06-3.19,3.33-.45.71-.08,1.94-.08,2.94,0,7.09,0,14.17,0,21.37Zm409.95-13.11h-.05c0-3.49-.04-6.99.01-10.48.03-2.25.01-4.59-3-4.52-2.84.06-3.12,2.28-3.11,4.58.04,7.24.11,14.48-.07,21.71-.03,1.15-1.12,2.39-1.97,3.37-2.37,2.77-5.62,5.06-7.17,8.21-3.25,6.63.48,14.9,7.43,18.1,7.43,3.42,16.31.58,19.69-6.29,3.53-7.17,1.5-16.53-5.52-18.93-6.49-2.21-6.59-6.16-6.26-11.26.1-1.49.02-2.99.02-4.49Zm-409.66,201.47h-.04c0,2.5-.03,4.99,0,7.49.03,2.1.34,4.33,2.97,4.36,2.87.03,3.65-2.08,3.59-4.65-.1-4.49,0-8.99-.25-13.48-.16-2.77.51-4.38,3.24-5.79,5.75-2.95,8.46-10,6.79-16-1.94-7-7.17-11.11-14.16-11.13-6.96-.03-12.45,4.2-14.28,10.99-1.6,5.92,1,13.61,6.83,15.91,5.38,2.12,5.74,5.53,5.31,10.04-.07.74-.01,1.5-.01,2.25Zm80.34,84.67c0,2.3-.18,3.82.04,5.28.36,2.38,3.45,4.7,5.43,4.17,2.76-.74,2.18-2.91,1.93-4.89-.18-1.49-.28-2.99-.57-4.45-.57-2.89.06-4.81,3.06-6.23,4.86-2.3,7.45-6.59,8-11.88.75-7.25-3.91-13.83-10.75-15.54-7.25-1.81-14.7,1.61-17.55,8.06-3.1,7.02-.8,14.66,6.21,18.75,3.17,1.85,5.25,3.64,4.21,6.73Zm260.14-196.28c9.95-.03,9.91-.07,16.55-7.41,6.54-7.23,13.31-14.25,19.71-21.59,3.12-3.58,6.47-5.44,11.32-4.85,3.2.39,6.49.08,9.74.04,2.21-.02,4.64-.17,4.56-3.11-.07-2.73-2.3-3.24-4.61-3.24-4.75,0-9.52.26-14.24-.06-3.67-.25-6.07,1.23-8.41,3.81-8.49,9.34-17.05,18.61-25.79,27.71-1.27,1.32-3.55,2.07-5.45,2.28-3.34.36-6.79-.24-10.09.25-1.35.2-3.16,2-3.49,3.38-.51,2.19,1.5,2.8,3.44,2.81,2.25.01,4.5,0,6.75,0Zm-8.48,104.03c-8.28.06-14.72,6.74-14.65,15.21.06,8.22,6.69,14.73,14.85,14.6,8.33-.14,15.06-6.87,15.02-15.03-.03-8.02-7.06-14.84-15.22-14.78Zm-253.88,2.59c.13-7.92-7-15.21-14.91-15.25-7.96-.04-14.4,6.36-14.62,14.51-.22,8.52,6.15,15.27,14.51,15.37,8.04.09,14.89-6.58,15.02-14.63Zm321.01,28.8c.03-8.54-6.48-15.33-14.68-15.31-8.15.02-14.42,6.73-14.49,15.5-.06,7.73,6.55,14.07,14.58,14,7.81-.07,14.55-6.63,14.58-14.19Zm-116.55-342.83c-8.05-.09-14.33,6.38-14.47,14.91-.13,7.72,6.68,14.61,14.46,14.63,7.73.02,14.81-6.97,14.99-14.79.16-7.49-7.12-14.66-14.97-14.75Zm-208.32,350.26s0-.01,0-.02c-2.62,0-5.26.21-7.86-.05-3.27-.33-5.68.72-7.89,3.14-3.27,3.6-6.89,6.88-10.22,10.42-.97,1.03-2.06,2.47-2.12,3.76-.24,6.23-.37,12.49-.01,18.7.08,1.4,2.25,2.68,3.45,4.02,1.14-1.4,2.74-2.64,3.28-4.24.56-1.68.38-3.75.04-5.56-1.7-9.05,1.56-16.04,8.78-21.3,1.66-1.21,3.86-2.24,5.86-2.34,5.72-.29,11.48.15,17.2-.17,1.32-.07,2.52-2.04,3.78-3.14-1.27-1.07-2.45-2.89-3.84-3.07-3.44-.45-6.97-.15-10.46-.15Zm80.33,65.21s-.02,0-.04,0c0-6.86-.04-13.72.02-20.58.02-2.38-.82-3.98-3.31-4.02-2.61-.04-3.29,1.76-3.28,4.04.03,13.47.05,26.94.06,40.4,0,2.47.52,4.73,3.52,4.65,2.91-.08,3.03-2.45,3.03-4.67,0-6.61,0-13.22,0-19.83Zm106.09-.12h.01c0-1.37,0-2.74,0-4.11,0-5.61.16-11.23-.15-16.82-.07-1.25-1.77-2.41-2.72-3.62-1.17,1.09-2.41,2.12-3.45,3.31-.33.37-.17,1.2-.17,1.83,0,13.34.02,26.67,0,40.01,0,2.46.73,4.31,3.49,4.24,2.68-.07,3.01-2.1,3.01-4.27-.02-6.85,0-13.71,0-20.56Zm159.85-186.36v-.03c4.87,0,9.76.2,14.61-.13,1.28-.09,2.44-1.82,3.65-2.8-1.16-1.24-2.25-2.54-3.51-3.66-.36-.32-1.21-.11-1.83-.11-9-.03-17.99-.03-26.99-.09-2.52-.02-4.8.57-4.71,3.48.09,2.86,2.43,3.38,4.91,3.36,4.62-.04,9.25-.01,13.87-.01Zm-301.29,176.71h.04c0,3.61-.3,7.27.14,10.83.19,1.57,1.71,4.01,2.93,4.21,2.62.43,3.37-1.95,3.39-4.27.05-7.1.07-14.21.11-21.32.01-2.29-.8-4.09-3.33-4.02-2.45.06-3.33,1.77-3.29,4.1.05,3.49.01,6.98.01,10.47Zm30.07-291.35c0,2.61-.05,5.23.01,7.84.05,2.17.71,4.06,3.29,4.15,2.69.1,3.31-1.87,3.34-4.01.07-5.22.03-10.45.02-15.68,0-2.31-.99-4.04-3.44-3.95-2.43.09-3.27,1.89-3.23,4.19.04,2.49,0,4.98.02,7.47Zm95.3,319.97h.04c0-1.87,0-3.73,0-5.6.01-2.28-.37-4.57-3.18-4.52-2.61.04-3.41,2.16-3.45,4.49-.05,4.11-.31,8.24.06,12.31.13,1.39,1.72,3.45,2.99,3.75,2.4.56,3.44-1.44,3.52-3.71.07-2.24.02-4.48.02-6.72Zm-72.98.93c-.09,0-.18,0-.28,0,0-2.6.33-5.27-.14-7.78-.23-1.22-1.84-2.66-3.11-3.02-.7-.2-2.77,1.58-2.85,2.58-.4,4.81-.59,9.69-.25,14.49.08,1.19,2.43,2.22,3.73,3.33.96-1.34,2.36-2.55,2.78-4.04.49-1.73.11-3.69.11-5.56Zm-112.24-165.61c.57,0,1.14,0,1.7,0,1.14-1.63,2.98-3.15,3.26-4.91.38-2.46-1.67-3.71-4.13-3.7-2.72.01-4.55,1.65-4.17,4.15.24,1.62,2.17,2.98,3.34,4.45Zm376.74-95.36c.02-.57.05-1.13.07-1.7-1.42-1.17-2.71-3.05-4.29-3.35-2.5-.47-4.18,1.34-4.28,3.96-.09,2.49,1.38,4.28,3.81,3.91,1.67-.25,3.13-1.84,4.69-2.83Zm-462.9-1.68c.02.59.04,1.17.06,1.76,1.56.98,3.28,2.91,4.63,2.68,1.51-.25,2.69-2.47,4.02-3.83-1.43-1.32-2.75-3.48-4.33-3.69-1.3-.17-2.91,1.97-4.38,3.08Zm460.26,12.38c-2.11,2.59-4.04,4-4.35,5.71-.17.95,2.19,3.11,3.7,3.45,2.46.56,4.59-1.08,4.34-3.72-.15-1.52-1.87-2.88-3.69-5.45Zm-44.68,34.99c-1.1,1.46-2.87,2.8-3.16,4.41-.48,2.64,1.63,4.44,4.03,4.08,1.41-.21,3.26-2.21,3.61-3.71.51-2.23-.94-4-4.47-4.78Zm-291.05,191.82c-.01.59-.03,1.18-.04,1.77,1.41,1.02,2.71,2.6,4.27,2.92,2.42.49,4.15-1.17,4.2-3.63.06-2.46-1.61-4.2-4.02-3.84-1.57.24-2.94,1.81-4.4,2.78Zm337.42-207.43c-.57-.02-1.14-.04-1.71-.06-1.16,1.49-3.01,2.85-3.32,4.49-.47,2.46,1.54,3.88,3.93,3.92,2.49.04,4.24-1.56,3.91-3.97-.21-1.56-1.82-2.93-2.81-4.39Zm-461.08,8.79c.61.01,1.21.03,1.82.04,1.07-1.49,2.77-2.87,3.07-4.5.46-2.49-1.51-4.22-3.86-3.7-1.51.33-3.61,2.19-3.73,3.53-.14,1.44,1.72,3.07,2.7,4.62Zm62.16,150.95c-.59-.03-1.18-.06-1.77-.09-1.12,1.53-2.89,2.94-3.2,4.62-.46,2.53,1.74,4.02,3.97,3.65,1.38-.23,3.46-2.1,3.48-3.26.03-1.62-1.57-3.27-2.47-4.91Zm340.97,5.2c.02-.58.05-1.15.07-1.73-1.38-1.08-2.64-2.85-4.15-3.1-2.32-.37-4.39,1.32-3.9,3.77.3,1.48,2.2,3.44,3.62,3.67,1.29.2,2.9-1.66,4.37-2.61Zm-167.1,73.05c-2.46-1.94-3.97-4.01-5.17-3.84-1.35.19-3.12,2.28-3.36,3.76-.15.95,2.02,3.05,3.35,3.24,1.21.17,2.68-1.54,5.18-3.15Z"/>
  <path class="cls-1" d="m384.02,584.33c-56.01-112.85-112.02-225.71-168.16-338.83.84-.08,1.75-.23,2.66-.24,17.37-.05,34.75-.13,52.12-.03,1.24,0,3.1,1,3.62,2.05,21.31,42.97,42.5,85.99,63.7,129.01,15.02,30.48,30.01,60.96,45.03,91.44.53,1.08,1.16,2.12,2.07,3.77,3.23-6.52,6.18-12.41,9.07-18.33,21.74-44.58,43.48-89.16,65.19-133.76,11.65-23.92,23.25-47.87,34.96-71.76.5-1.01,1.88-2.27,2.85-2.28,18.36-.14,36.72-.1,55.97-.1-56.09,113.31-111.9,226.06-167.72,338.81l-1.37.25Zm142.98-322.74c-6.57,0-12.19.19-17.78-.08-3-.14-4.49,1.02-5.72,3.58-5.95,12.38-12.03,24.7-18.07,37.04-31.24,63.82-62.49,127.64-93.72,191.47-2.17,4.44-4.2,8.94-6.64,14.14-1.42-2.57-2.5-4.36-3.42-6.23-27.54-55.92-55.06-111.85-82.61-167.77-10.54-21.4-21.28-42.7-31.68-64.17-3.91-8.08-3.59-8.23-12.49-8.23-4.15,0-8.3,0-12.9,0,47.61,96.03,94.89,191.38,142.17,286.72.54-.05,1.08-.1,1.62-.14,46.99-95.27,93.98-190.54,141.24-286.34Z"/>
  <path class="cls-1" d="m388.7,405.77c3.72-7.61,7.44-15.22,11.18-22.82,20.94-42.59,41.88-85.18,62.83-127.77,5.24-10.65,10.54-21.26,15.72-31.93,1.19-2.45,2.81-3.39,5.58-3.34,10.62.17,21.25.21,31.87.04,1.74-.03,3.74-1.02,5.14-2.15,3.39-2.75,6.47-5.87,9.72-8.79.73-.65,1.71-1.57,2.5-1.5,1.58.13,3.1.86,4.65,1.34-.5,1.37-.63,3.16-1.59,4.02-2.55,2.31-5.47,4.21-8.24,6.28.04.38.08.76.11,1.14,2.77,0,5.54-.02,8.3,0,4.37.04,8.77-.12,13.11.31,1.45.14,2.76,1.83,4.13,2.81-1.31,1.23-2.49,2.69-3.99,3.61-.82.5-2.19.11-3.32.11-19.5-.02-38.99.01-58.49-.11-2.63-.02-3.95.83-5.11,3.21-22.2,45.58-44.44,91.14-66.8,136.64-9.36,19.05-19,37.96-28.55,56.93-.65,1.3-1.55,2.47-2.74,4.34-1.21-1.93-2.21-3.27-2.94-4.74-13.53-27.16-27.03-54.34-40.53-81.52-18.33-36.91-36.69-73.81-54.92-110.77-1.52-3.09-3.26-4.19-6.81-4.15-19.49.25-38.99.17-58.49.2-.62,0-1.25,0-1.87-.01-2.21-.07-3.58-1.13-3.6-3.42-.02-2.45,1.27-3.62,3.75-3.6,5.75.06,11.5.06,17.25.06,1.2,0,2.41-.11,4.42-.22-2.95-2.47-5.3-4.43-7.64-6.4-1.7-1.44-2.75-3.2-1.07-5.15,1.72-1.99,3.82-1.62,5.59.09,3.05,2.95,6.14,5.89,8.97,9.05,1.63,1.81,3.25,2.64,5.77,2.6,10.74-.19,21.5,0,32.24-.26,3.15-.08,4.69,1.09,6,3.74,13.75,27.89,27.63,55.72,41.37,83.62,15.89,32.26,31.66,64.57,47.49,96.86.32.64.73,1.24,1.47,2.5,0-3.07,0-5.42,0-7.78.03-10.5.21-21-.03-31.49-.05-2.23-1.18-4.81-2.62-6.57-4.58-5.6-9.65-10.81-14.28-16.38-1.16-1.39-1.86-3.56-1.92-5.4-.19-6.62.01-13.24.02-19.87,0-2.47.48-4.76,3.45-4.77,2.94-.02,3.07,2.36,3.09,4.59.04,6.25-.04,12.5.21,18.74.06,1.55.84,3.34,1.85,4.55,4.31,5.18,8.84,10.18,13.69,15.7,5.14-5.95,10.29-11.8,15.28-17.78.61-.73.54-2.13.55-3.22.05-5.87-.04-11.75.06-17.62.02-1.3.31-2.86,1.08-3.8.63-.77,2.4-1.37,3.24-1.02,1,.41,2.16,1.91,2.18,2.96.16,7.74.15,15.5-.06,23.24-.04,1.28-1.17,2.68-2.1,3.77-4.93,5.81-9.98,11.52-14.92,17.33-.85,1-1.95,2.28-1.97,3.44-.14,13.44-.09,26.88-.09,40.33.26.06.52.12.78.18Z"/>
  <path class="cls-1" d="m573.59,453.46c-5.28,0-10.26-.01-15.24,0-13.62.04-27.25.01-40.87.26-1.84.03-4.14,1.04-5.4,2.38-7.78,8.29-15.41,16.74-22.88,25.31-1.25,1.44-2.08,3.72-2.13,5.64-.32,11.49-.26,23-.59,34.49-.06,1.91-1.06,4.08-2.28,5.62-4.35,5.47-8.79,10.91-13.58,16-3.9,4.14-2.21,8.93-2.29,13.51,0,.56,2.3,1.45,3.63,1.71,10.17,1.97,13.32,12.91,9.91,20.13-2.75,5.82-7.74,8.99-14.42,8.71-5.95-.26-10.83-3.93-12.97-9.76-2.08-5.65-.62-12.34,4.09-16.01,2.5-1.95,3.59-4.04,3.12-6.99-1.25-7.94,1.34-14.17,7.47-19.44,3.66-3.15,6.6-7.16,9.61-10.99.98-1.24,1.58-3.12,1.61-4.72.2-11.37.3-22.75.23-34.12-.02-2.84.82-4.99,2.72-7.03,8.75-9.44,17.44-18.94,26.1-28.47,1.89-2.08,3.97-2.96,6.89-2.92,19.5.22,39,.29,58.5.28,1.76,0,3.68-.56,5.24-1.39,7.77-4.13,17.16-1.19,20.61,6.62,3.6,8.15-.18,17.32-8.53,20.13-2.12.71-2.65,1.72-2.59,3.75.15,4.87.08,9.75.15,14.62.03,2.28-.62,4.12-3.19,4.16-2.63.04-3.24-1.9-3.24-4.11.01-5.12.19-10.25-.03-15.37-.06-1.27-1.07-3-2.16-3.66-7.25-4.37-9.48-9.25-7.49-18.33Zm13.76-2.08c-4.43.06-7.39,2.73-7.41,6.67-.02,4.28,3.99,8.46,7.97,8.31,3.72-.14,7.36-3.97,7.29-7.67-.08-4.12-3.57-7.37-7.86-7.31Zm-111.26,121.04c.08-3.65-3.64-7.4-7.46-7.51-4.02-.11-7.57,3.48-7.58,7.65-.01,3.94,3.41,7.46,7.31,7.53,3.91.07,7.64-3.63,7.73-7.67Z"/>
  <path class="cls-1" d="m208.06,413.56c1.2,1.43,1.76,2.21,2.43,2.88,8.87,8.8,17.81,17.53,26.59,26.41,2.36,2.38,4.82,3.89,8.22,3.38,7.93-1.2,13.61,2.02,18.72,8.05,6.69,7.9,14.25,15.06,21.28,22.68,1.05,1.14,1.8,3.01,1.83,4.55.19,10.99.07,21.99.27,32.99.03,1.63.96,3.53,2.1,4.71.43.45,2.75-.54,3.96-1.28,6.22-3.76,14.69-1.81,18.83,4.46,4.51,6.81,3.08,16.14-3.35,20.39-5.35,3.54-11.11,3.94-16.61.49-5.17-3.24-7.53-8.03-6.81-14.36.19-1.68-.63-3.86-1.72-5.2-1.89-2.32-2.95-4.42-2.87-7.65.27-10.49.09-20.99-.14-31.48-.04-1.67-.87-3.68-2.01-4.91-7.73-8.33-15.57-16.56-23.58-24.63-1.31-1.33-3.68-2.53-5.42-2.36-9.01.89-15.54-2.18-21.59-9.23-8.35-9.74-18.15-18.22-27.17-27.39-2.05-2.08-4.14-2.73-6.94-2.7-12.37.14-24.74.11-37.11.12-1.25,0-2.67.24-3.69-.28-1.05-.53-2.29-1.81-2.36-2.84-.07-1.03.96-2.61,1.95-3.12,1.23-.64,2.9-.57,4.38-.57,38.36-.07,76.72-.1,115.09-.16,2.48,0,5.16-.05,5.09,3.35-.06,3.1-2.39,3.61-5.05,3.61-19.87,0-39.74.06-59.6.1-1.33,0-2.66,0-4.73,0Zm99.83,117.38c.05-3.91-3.42-7.36-7.44-7.39-4.28-.03-7.64,3.01-7.73,7.01-.09,4.1,3.72,7.99,7.83,8,3.73,0,7.3-3.69,7.35-7.61Z"/>
  <path class="cls-1" d="m551.73,432.29c-19.24,0-38.48.06-57.72-.06-2.9-.02-4.52.89-5.81,3.5-18.36,37.02-36.85,73.99-55.23,111-8.83,17.77-17.51,35.61-26.24,53.43-1.04,2.13-1.83,4.38-2.93,6.47-1.03,1.97-2.96,3.31-4.88,1.91-1.15-.84-1.99-3.25-1.68-4.67.57-2.62,2.02-5.07,3.24-7.53,27.08-54.72,54.21-109.41,81.18-164.19,2.33-4.74,5.03-6.51,10.6-6.46,37.98.3,75.96.11,113.95.08,1.75,0,3.65-.4,5.2.17,1.35.5,2.29,2.1,3.41,3.21-1.16,1.02-2.21,2.7-3.51,2.94-2.67.48-5.47.21-8.22.21-17.12,0-34.23,0-51.35,0Z"/>
  <path class="cls-1" d="m268.61,425.81c3.62,0,7.26.17,10.87-.05,3.21-.2,5.18,1.15,6.55,3.9,4.94,9.95,9.92,19.89,14.89,29.82,15.87,31.71,31.8,63.39,47.58,95.14,7.39,14.87,14.5,29.87,21.73,44.82.54,1.12,1.12,2.25,1.52,3.42.84,2.44.4,4.55-2.23,5.53-2.52.94-3.54-.83-4.49-2.76-17.83-36.17-35.68-72.33-53.54-108.49-10.07-20.37-20.21-40.7-30.2-61.11-1.32-2.69-2.83-3.98-5.97-3.85-6.24.27-12.49.17-18.74.2-2.06.01-4.38-.03-4.46-2.76-.08-2.8,1.83-3.79,4.5-3.74,4,.08,8,.02,11.99.02,0-.03,0-.06,0-.09Z"/>
  <path class="cls-1" d="m414.67,280.03c3.17,2.45,6.97,4.4,9.37,7.45,5.23,6.63,3.5,15.05-3.38,20.04-6.1,4.42-15.6,2.76-20.45-3.58-4.61-6.03-3.72-15.26,2.79-19.62,3.84-2.57,4.48-5.31,4.45-9.43-.17-28.61-.16-57.23-.02-85.84.01-2.85-1.31-3.81-3.39-4.98-7.66-4.3-9.91-14.43-4.99-21.81,4.56-6.84,13.75-8.43,20.42-3.28,4.29,3.31,6.84,7.78,6.08,13.35-.78,5.77-3.66,10.22-9.28,12.68-1.15.5-2.6,2.1-2.6,3.19-.04,30.61.09,61.22.21,91.83,0,.23.16.46.24.69.18-.23.37-.46.55-.69Zm5.33,15.76c.07-4.06-3.66-7.69-7.96-7.74-3.82-.05-7.33,3.21-7.42,6.9-.11,4.39,3.51,8.09,7.98,8.15,3.95.05,7.34-3.29,7.4-7.3Zm-1.39-124.83c.04-3.95-3.65-7.4-7.91-7.4-4,0-7.16,3.12-7.17,7.09-.01,4.2,3.64,7.92,7.85,8.01,3.62.08,7.18-3.72,7.23-7.7Z"/>
  <path class="cls-1" d="m534.21,528.08h-25.72v11.73c7.69,2.07,12.82,6.53,12.8,14.89-.02,7.99-4.33,13-12.11,14.91.07,1.41.24,2.63.17,3.84-.14,2.35-1.37,3.82-3.83,3.6-2.23-.2-4.14-1.53-3.54-3.88.88-3.43-.94-4.63-3.33-6.35-9.24-6.63-8.46-19.19,1.29-25.29.92-.57,1.75-2.02,1.81-3.11.2-3.99.03-7.99.05-11.99.02-4.53.76-5.21,5.21-5.2,8.97.02,17.94,0,27.12,0,0-9.04.34-17.87-.11-26.67-.34-6.56,1.13-11.84,6.24-16.26,3.47-3,6.31-6.73,9.45-10.12,1.64-1.78,3.62-3.23,5.79-1.26,2.2,2,.94,3.97-.81,5.77-4.01,4.11-8.07,8.19-11.8,12.55-1.23,1.44-2.1,3.71-2.11,5.61-.14,19.23-.07,38.47-.06,57.7,0,.87.31,1.94-.07,2.58-.75,1.27-1.82,3.11-2.89,3.2-1.04.09-2.81-1.51-3.24-2.73-.6-1.67-.29-3.69-.3-5.56-.02-5.86,0-11.71,0-17.99Zm-26.5,34.21c3.44-.09,6.76-3.94,6.64-7.71-.12-3.92-3.91-7.33-8.02-7.22-3.98.11-6.99,3.35-6.8,7.32.21,4.17,4.02,7.72,8.18,7.61Z"/>
  <path class="cls-1" d="m183.93,357.66c-8.7,0-17.68.04-26.67-.03-2.62-.02-6.23.72-6.22-3.38,0-4.14,3.62-3.33,6.24-3.31,10.24.09,20.48.31,30.73.42,1.06.01,2.22-.23,3.18-.67,11.28-5.1,20.22.19,21.24,12.6.02.23.18.44.53,1.23h20.3c-.12-.21-.31-.77-.68-1.14-7.94-7.96-15.85-15.95-23.93-23.77-1.17-1.14-3.18-1.89-4.84-1.96-5.36-.22-10.74-.05-16.11-.02-2.01.01-4.33-.34-3.83-2.77.3-1.45,2.43-3.51,3.84-3.58,6.6-.35,13.25-.35,19.85.05,1.83.11,3.87,1.7,5.28,3.13,9.02,9.17,17.97,18.42,26.76,27.81,1.87,1.99,3.6,3.14,6.4,2.9,2.85-.24,5.74-.02,8.62-.09,2.19-.06,3.82.72,3.87,3.04.06,2.54-1.66,3.34-4,3.33-13.12-.07-26.24-.05-39.35-.2-2.55-.03-4.42.62-6.28,2.45-4.39,4.35-9.8,5.41-15.59,3.44-5.17-1.76-8.89-5.27-9.75-10.85-.4-2.6.21-5.36.4-8.65Zm14.01,13.41c3.78.12,7.55-3.44,7.67-7.25.14-4.21-2.9-7.44-7.09-7.53-4.17-.09-7.76,2.97-7.98,6.81-.22,3.77,3.57,7.85,7.41,7.97Z"/>
  <path class="cls-1" d="m356.79,280.63c0-6.9.02-14,0-21.1-.09-32.99-.21-65.98-.28-98.97,0-2.51-.7-6.06,3.08-6.08,3.72-.02,3.2,3.48,3.2,6.04-.04,39.24-.11,78.48-.19,117.72,0,2.04.06,3.63,2.28,4.96,5.77,3.43,8.06,10.79,5.78,17.03-2.41,6.58-8.63,10.47-15.61,9.74-6.41-.66-11.78-5.87-12.77-12.39-.98-6.44,2.93-12.9,9.41-15.44,1.38-.54,2.84-.85,5.1-1.51Zm.1,22.49c4.26.09,7.6-3.13,7.72-7.43.12-4.17-3.21-7.63-7.43-7.73-4.3-.1-7.71,3.16-7.71,7.38,0,4.26,3.28,7.7,7.43,7.78Z"/>
  <path class="cls-1" d="m387.74,247.13c0,29,0,57.99,0,86.99,0,1,.32,2.2-.12,2.95-.67,1.13-1.83,2.65-2.85,2.7-1.11.06-2.63-1.16-3.33-2.23-.59-.91-.31-2.42-.31-3.66,0-58.49.03-116.98.06-175.47,0-1.11-.18-2.48.38-3.28.76-1.1,2.07-2.26,3.28-2.43.72-.1,2.06,1.53,2.46,2.63.48,1.35.35,2.95.35,4.44.02,29.12.01,58.24.01,87.36.03,0,.05,0,.08,0Z"/>
  <path class="cls-1" d="m212.25,492.41c0-13.83.04-27.42-.07-41.01,0-1.06-.85-2.31-1.66-3.12-4.86-4.85-9.74-9.69-14.81-14.31-1.13-1.02-3.09-1.57-4.67-1.58-9.86-.06-19.73.1-29.59.17-1.25,0-2.7.34-3.69-.18-1.25-.66-3.1-2.23-2.94-3.07.25-1.3,1.8-2.67,3.14-3.34,1.1-.55,2.69-.14,4.06-.14,10.36,0,20.73-.1,31.09.14,2.01.05,4.45.93,5.91,2.27,5.96,5.5,11.72,11.22,17.29,17.11,1.28,1.35,2.08,3.71,2.1,5.61.17,14.97.08,29.95.15,44.93,0,1.03.54,2.14,1.06,3.08,3.72,6.78,2.58,13.65-3.14,18.54-5.04,4.31-13.31,4.62-18.44.69-5.25-4.01-6.98-11.97-3.98-18.33,3.09-6.55,9.28-9.29,16.88-7.47.23.06.49,0,1.32,0Zm-5.49,6.66c-4,.08-7.29,3.24-7.26,6.98.03,4.46,3.81,8.33,7.98,8.16,3.82-.16,7.03-3.71,7.03-7.79,0-4.15-3.46-7.44-7.74-7.36Z"/>
  <path class="cls-1" d="m332.8,214.76c0-8.78-.09-17.27.05-25.74.04-2.55-1.56-2.99-3.31-3.75-7.69-3.32-11.22-11.34-8.34-18.78,2.82-7.29,11.19-11.28,18.78-8.72,6.05,2.04,9.2,6.7,10.09,12.8.86,5.87-2.12,11.86-7.44,14.33-2.91,1.35-3.69,3.05-3.59,6.01.26,7.36.14,14.73.44,22.08.05,1.21,1.19,2.88,2.29,3.47,5.78,3.08,9.18,9.14,8.3,15.39-.84,5.97-5.71,11.02-11.7,12.13-6.6,1.23-12.68-1.53-15.93-7.22-4.26-7.46-.91-17.41,7.02-20.76,1.02-.43,2.09-.77,3.34-1.24Zm2.76-35.17c3.68-.04,7.39-3.81,7.43-7.55.04-4.03-3.54-7.76-7.5-7.82-4.17-.06-7.84,3.42-7.81,7.41.02,4.07,3.92,8,7.88,7.96Zm.31,57.55c4.03-.09,7.19-3.45,7.1-7.56-.09-4.17-3.51-7.49-7.72-7.47-4.2.01-7.54,3.53-7.33,7.74.21,4.12,3.76,7.39,7.94,7.3Z"/>
  <path class="cls-1" d="m306.81,211.28c-5.9-.46-9.76-3.26-12.78-7.63-.65-.95-2.46-1.54-3.74-1.54-10.12-.03-20.24.38-30.34.06-2.64-.08-5.64-1.75-7.69-3.57-2.06-1.82-1.21-4.56,1.06-6.1,2.28-1.55,3.92-.63,4.89,1.94.22.6,1.25,1.27,1.92,1.28,10.59.08,21.18.06,32.02.06.8-7.53,4.63-12.35,12.48-13.95,0-4.14.03-8.23-.01-12.32-.02-2.43.78-4.36,3.43-4.43,2.73-.07,3.01,2.13,3.07,4.23.04,1.62.1,3.25,0,4.87-.32,4.6-.11,8.08,4.99,11.09,7.89,4.67,7.66,16.82.26,22.52-2.52,1.94-3.24,3.93-3.18,6.91.2,8.99.13,17.98.2,26.98.02,2.42-.22,4.87-3.27,4.84-3.01-.03-3.29-2.5-3.28-4.9,0-9.98,0-19.96,0-30.31Zm7.51-14.93c.04-4.13-3.7-7.81-7.91-7.8-3.73,0-7.08,3.34-7.18,7.16-.12,4.4,3.57,8.22,7.89,8.16,3.95-.05,7.17-3.41,7.21-7.51Z"/>
  <path class="cls-1" d="m571.3,364.88c-2.11-11.25,4.34-20.22,14.14-20.19,6.06.01,11.76,4.17,13.95,10.18,2.14,5.86.64,11.87-4,16.05-4.56,4.11-11.93,5.36-17.09,2.07-4.73-3.02-9.66-1.65-14.53-1.77-1.07-.02-2.31,1.31-3.23,2.26-5.41,5.54-10.63,11.27-16.21,16.64-1.52,1.46-4.02,2.58-6.1,2.65-9.74.29-19.48.16-29.23.17-.87,0-1.76.06-2.62-.03-2.11-.24-4.05-.8-3.91-3.51.14-2.66,1.75-3.61,4.27-3.57,9.87.14,19.74.3,29.6.24,1.52,0,3.41-.72,4.49-1.77,5.11-4.95,10.1-10.03,14.94-15.25,3.07-3.32,6.42-5.37,11.12-4.48,1.32.25,2.69.21,4.39.33Zm13.69-12.39c-4.05.04-7.19,3.4-7.09,7.59.1,4.09,3.88,7.63,8.19,7.64,3.64.01,7.33-3.93,7.19-7.69-.15-4.07-4-7.58-8.28-7.54Z"/>
  <path class="cls-1" d="m509.95,194.84c1.36-.95,2.64-2.44,4.11-2.66.95-.14,3.05,1.54,3.09,2.46.06,1.77-.47,4.15-1.69,5.21-1.43,1.24-3.83,1.8-5.84,1.86-8.62.27-17.25.14-25.86.41-1.98.06-4.26.67-5.82,1.82-5.02,3.7-9.88,7.66-14.55,11.8-1.18,1.04-1.95,3.11-2.02,4.74-.26,6.11-.26,12.25-.14,18.37.06,3.01-.9,5.19-3.25,7.11-5.62,4.58-11.19,9.23-16.53,14.13-1.34,1.23-2.34,3.48-2.42,5.32-.29,6.49-.13,12.99-.13,19.49,0,2.48-.12,5.24-3.34,5.24-3.02,0-3.15-2.72-3.16-5.02-.05-7.75-.2-15.5.08-23.24.06-1.66,1.41-3.65,2.74-4.83,5.5-4.9,11.2-9.59,16.89-14.26,1.89-1.55,2.68-3.31,2.63-5.79-.13-6.5-.12-13,.12-19.49.06-1.5.89-3.4,2.02-4.37,6.45-5.52,13-10.94,19.76-16.08,1.5-1.14,3.95-1.4,5.97-1.44,9.24-.15,18.48-.06,27.72-.06-.13-.24-.25-.47-.38-.71Z"/>
  <path class="cls-1" d="m439.95,187.91c0,8.12.08,16.24-.05,24.36-.04,2.35.63,3.73,2.67,5.12,6.51,4.43,8.2,14.26,3.79,20.29-4.9,6.71-14.3,8.35-21.02,3.68-6.58-4.58-8.5-13.79-3.54-20.15,1.99-2.56,5.3-4.55,8.42-5.64,2.57-.9,3.2-1.83,3.19-4.31-.08-15.24-.01-30.48,0-45.73,0-1,.02-2,0-3-.05-2.3.77-4.01,3.28-4.14,2.8-.15,3.16,1.85,3.16,4.03,0,8.49,0,16.99,0,25.48.03,0,.06,0,.09,0Zm-13.34,41.4c0,4.21,3.3,7.6,7.5,7.68,3.84.07,7.33-3.17,7.44-6.91.11-3.95-3.57-7.83-7.46-7.86-4.36-.03-7.48,2.93-7.48,7.09Z"/>
  <path class="cls-1" d="m554.25,413.43c-19.5,0-39,0-58.5.01-2.36,0-4.92.07-4.81-3.15.1-3,2.39-3.74,5.06-3.73,39.25.02,78.49.04,117.74.02,2.62,0,4.61.84,4.66,3.64.05,2.89-2.24,3.17-4.53,3.17-19.87,0-39.75,0-59.62,0v.06Z"/>
  <path class="cls-1" d="m578.04,253.4c-.73,1.76-1.19,3.05-1.8,4.27-15.24,30.33-30.5,60.64-45.78,90.95-.55,1.09-1.2,2.47-2.18,2.93-1.17.55-2.99.74-4.05.18-.83-.45-1.43-2.35-1.25-3.46.3-1.79,1.23-3.52,2.07-5.18,14.56-28.99,29.15-57.98,43.75-86.95.84-1.66,1.66-3.46,2.95-4.73.87-.86,2.76-1.52,3.8-1.14,1.1.4,1.73,2.11,2.48,3.15Z"/>
  <path class="cls-1" d="m246.58,349.41c-.9.88-1.72,2.38-2.67,2.46-1.22.11-3.08-.57-3.71-1.53-2.13-3.22-3.92-6.67-5.69-10.11-13.65-26.55-27.26-53.11-40.86-79.68-.79-1.55-1.9-3.18-1.96-4.81-.07-1.71.92-3.47,1.45-5.21,1.62.79,3.79,1.18,4.74,2.46,1.83,2.48,2.99,5.46,4.41,8.24,14.15,27.83,28.3,55.67,42.43,83.51.67,1.31,1.11,2.74,1.88,4.66Z"/>
  <path class="cls-1" d="m208.59,392.96c-17.73,0-35.45,0-53.18,0-2.4,0-5.21.24-5.09-3.27.11-3.11,2.52-3.51,5.14-3.51,35.45.02,70.9,0,106.35-.03,2.21,0,4.39.07,5.08,2.73.65,2.51-1.14,4.04-4.75,4.05-17.85.02-35.7,0-53.55,0v.03Z"/>
  <path class="cls-1" d="m179.6,294.66c0-7.2,0-14.29,0-21.37,0-1-.37-2.23.08-2.94.8-1.28,2.1-2.24,3.19-3.33,1.05,1.15,2.94,2.26,3,3.45.32,6.98.3,13.97.19,20.96-.04,2.55.42,4.2,2.88,5.72,5.53,3.4,7.84,10.01,6.23,15.94-1.63,6.01-6.53,10.37-12.36,11.01-6.58.72-12.37-2.5-15.31-8.49-3.58-7.33.66-17.36,8.46-19.92,1.17-.39,2.37-.67,3.64-1.02Zm1.19,7.39c-4.03.06-7.22,3.47-7.12,7.62.09,3.96,3.6,7.32,7.6,7.27,4.05-.05,7.33-3.51,7.18-7.57-.14-3.79-3.89-7.38-7.66-7.32Z"/>
  <path class="cls-1" d="m589.55,281.55c0,1.5.08,3-.02,4.49-.34,5.1-.23,9.05,6.26,11.26,7.02,2.39,9.05,11.75,5.52,18.93-3.38,6.88-12.26,9.71-19.69,6.29-6.95-3.2-10.68-11.47-7.43-18.1,1.54-3.15,4.8-5.44,7.17-8.21.85-.99,1.94-2.23,1.97-3.37.18-7.23.12-14.47.07-21.71-.01-2.31.27-4.52,3.11-4.58,3.02-.07,3.04,2.27,3,4.52-.05,3.49-.01,6.99-.01,10.48h.05Zm6.09,27.97c.08-3.94-3.59-7.82-7.44-7.86-4.01-.03-7.63,3.54-7.7,7.59-.06,3.8,3.44,7.43,7.3,7.55,4.22.14,7.75-3.14,7.83-7.29Z"/>
  <path class="cls-1" d="m179.9,483.02c0-.75-.06-1.5.01-2.25.44-4.51.08-7.92-5.31-10.04-5.83-2.3-8.43-9.99-6.83-15.91,1.84-6.8,7.32-11.02,14.28-10.99,6.99.03,12.22,4.14,14.16,11.13,1.67,6-1.05,13.05-6.79,16-2.73,1.4-3.39,3.01-3.24,5.79.25,4.48.15,8.98.25,13.48.06,2.57-.72,4.68-3.59,4.65-2.63-.03-2.95-2.26-2.97-4.36-.03-2.5,0-4.99,0-7.49h.04Zm9.58-24.59c.09-3.77-3.37-7.12-7.5-7.25-4.16-.13-7.39,2.67-7.56,6.55-.19,4.28,3.21,8.02,7.44,8.2,4.1.17,7.52-3.19,7.63-7.51Z"/>
  <path class="cls-1" d="m260.24,567.69c1.04-3.09-1.04-4.88-4.21-6.73-7-4.09-9.3-11.73-6.21-18.75,2.84-6.45,10.3-9.88,17.55-8.06,6.84,1.71,11.51,8.29,10.75,15.54-.55,5.29-3.14,9.58-8,11.88-3,1.42-3.63,3.34-3.06,6.23.29,1.47.39,2.97.57,4.45.24,1.98.83,4.15-1.93,4.89-1.98.53-5.07-1.8-5.43-4.17-.22-1.46-.04-2.99-.04-5.28Zm3.96-26.53c-4.23-.24-8.21,2.99-8.39,6.82-.18,3.83,3.51,7.88,7.36,8.07,3.69.18,7.63-3.31,7.94-7.04.32-3.79-3.06-7.63-6.91-7.85Z"/>
  <path class="cls-1" d="m520.38,371.42c-2.25,0-4.5,0-6.75,0-1.93,0-3.95-.61-3.44-2.81.32-1.37,2.13-3.18,3.49-3.38,3.3-.48,6.75.11,10.09-.25,1.9-.2,4.19-.96,5.45-2.28,8.73-9.11,17.3-18.37,25.79-27.71,2.34-2.58,4.73-4.06,8.41-3.81,4.73.33,9.49.07,14.24.06,2.31,0,4.54.51,4.61,3.24.08,2.94-2.35,3.09-4.56,3.11-3.25.03-6.54.34-9.74-.04-4.85-.59-8.2,1.27-11.32,4.85-6.4,7.35-13.17,14.37-19.71,21.59-6.64,7.33-6.59,7.37-16.55,7.42Z"/>
  <path class="cls-1" d="m511.9,475.44c8.16-.06,15.19,6.76,15.22,14.78.03,8.16-6.69,14.89-15.02,15.03-8.16.14-14.79-6.38-14.85-14.6-.06-8.47,6.37-15.15,14.65-15.21Zm-.29,7.25c-4.03.09-7.16,3.43-7.1,7.58.06,4.33,3.78,7.81,8.34,7.8,3.81,0,6.8-3.24,6.81-7.37,0-4.49-3.63-8.11-8.05-8.02Z"/>
  <path class="cls-1" d="m258.02,478.03c-.13,8.05-6.98,14.72-15.02,14.63-8.36-.1-14.73-6.84-14.51-15.37.21-8.16,6.65-14.55,14.62-14.51,7.92.04,15.04,7.33,14.91,15.25Zm-7.25-.25c-.08-4.16-3.55-7.52-7.76-7.53-4.28,0-7.51,3.41-7.32,7.75.17,3.98,3.9,7.43,7.99,7.41,3.97-.02,7.17-3.47,7.09-7.63Z"/>
  <path class="cls-1" d="m579.03,506.83c-.03,7.56-6.78,14.13-14.58,14.19-8.04.07-14.64-6.27-14.58-14,.06-8.77,6.34-15.49,14.49-15.5,8.2-.02,14.71,6.78,14.68,15.31Zm-14.4,6.95c3.78,0,7.33-3.33,7.44-6.97.11-3.95-3.63-7.6-7.72-7.53-3.92.07-7.06,3.25-7.12,7.21-.06,3.99,3.29,7.28,7.4,7.29Z"/>
  <path class="cls-1" d="m462.48,164c7.85.09,15.13,7.26,14.97,14.75-.17,7.82-7.25,14.81-14.99,14.79-7.77-.02-14.58-6.91-14.46-14.63.14-8.53,6.42-15,14.47-14.91Zm7.6,15.11c0-4.18-3.76-7.88-7.9-7.79-3.86.09-6.98,3.32-7.03,7.26-.05,4.24,3.23,7.69,7.4,7.76,3.94.07,7.53-3.39,7.53-7.24Z"/>
  <path class="cls-1" d="m254.16,514.26c3.49,0,7.03-.3,10.46.15,1.39.18,2.57,2,3.84,3.07-1.26,1.1-2.47,3.07-3.78,3.14-5.72.32-11.48-.11-17.2.17-2,.1-4.2,1.13-5.86,2.34-7.21,5.26-10.48,12.25-8.78,21.3.34,1.81.52,3.89-.04,5.56-.54,1.6-2.14,2.84-3.28,4.24-1.21-1.34-3.37-2.62-3.45-4.02-.36-6.22-.23-12.47.01-18.7.05-1.29,1.14-2.73,2.12-3.76,3.33-3.54,6.95-6.82,10.22-10.42,2.2-2.42,4.62-3.47,7.89-3.14,2.59.26,5.24.05,7.86.05,0,0,0,.01,0,.02Z"/>
  <path class="cls-1" d="m334.49,579.47c0,6.61,0,13.22,0,19.83,0,2.21-.12,4.59-3.03,4.67-3,.08-3.52-2.19-3.52-4.65-.01-13.47-.03-26.94-.06-40.4,0-2.27.67-4.08,3.28-4.04,2.5.04,3.34,1.65,3.31,4.02-.06,6.86-.02,13.72-.02,20.58.01,0,.02,0,.04,0Z"/>
  <path class="cls-1" d="m440.58,579.35c0,6.85-.01,13.71,0,20.56,0,2.17-.33,4.2-3.01,4.27-2.76.07-3.49-1.78-3.49-4.24.03-13.34,0-26.67,0-40.01,0-.62-.16-1.45.17-1.83,1.05-1.2,2.29-2.22,3.45-3.31.95,1.2,2.65,2.37,2.72,3.62.3,5.59.14,11.21.15,16.82,0,1.37,0,2.74,0,4.11h-.01Z"/>
  <path class="cls-1" d="m600.43,393c-4.62,0-9.25-.03-13.87.01-2.48.02-4.82-.5-4.91-3.36-.09-2.91,2.19-3.5,4.71-3.48,9,.06,17.99.06,26.99.09.62,0,1.47-.21,1.83.11,1.26,1.12,2.35,2.43,3.51,3.66-1.21.98-2.38,2.72-3.65,2.8-4.85.33-9.74.13-14.61.13v.03Z"/>
  <path class="cls-1" d="m299.14,569.7c0-3.49.04-6.98-.01-10.47-.03-2.33.84-4.04,3.29-4.1,2.54-.06,3.35,1.74,3.33,4.02-.04,7.11-.06,14.21-.11,21.32-.02,2.33-.77,4.7-3.39,4.27-1.22-.2-2.74-2.64-2.93-4.21-.44-3.56-.14-7.21-.14-10.83h-.04Z"/>
  <path class="cls-1" d="m329.21,278.35c0-2.49.03-4.98,0-7.47-.04-2.29.8-4.1,3.23-4.19,2.45-.09,3.43,1.65,3.44,3.95.01,5.23.05,10.45-.02,15.68-.03,2.14-.65,4.11-3.34,4.01-2.57-.09-3.23-1.99-3.29-4.15-.06-2.61-.01-5.23-.02-7.84Z"/>
  <path class="cls-1" d="m424.51,598.31c0,2.24.06,4.48-.02,6.72-.07,2.26-1.12,4.27-3.52,3.71-1.27-.3-2.86-2.36-2.99-3.75-.38-4.07-.12-8.2-.06-12.31.03-2.33.83-4.45,3.45-4.49,2.81-.04,3.19,2.24,3.18,4.52-.01,1.87,0,3.73,0,5.6h-.04Z"/>
  <path class="cls-1" d="m351.53,599.25c0,1.86.37,3.83-.11,5.56-.42,1.49-1.81,2.71-2.78,4.04-1.31-1.11-3.65-2.14-3.73-3.33-.34-4.81-.15-9.68.25-14.49.08-1,2.15-2.77,2.85-2.58,1.26.35,2.87,1.79,3.11,3.02.48,2.51.14,5.18.14,7.78.09,0,.18,0,.28,0Z"/>
  <path class="cls-1" d="m239.29,433.64c-1.17-1.48-3.09-2.84-3.34-4.45-.38-2.51,1.45-4.14,4.17-4.15,2.46-.01,4.51,1.24,4.13,3.7-.28,1.76-2.11,3.28-3.26,4.91-.57,0-1.14,0-1.7,0Z"/>
  <path class="cls-1" d="m616.03,338.27c-1.56.99-3.02,2.57-4.69,2.83-2.44.37-3.9-1.42-3.81-3.91.1-2.62,1.78-4.43,4.28-3.96,1.58.3,2.87,2.18,4.29,3.35-.02.57-.05,1.13-.07,1.7Z"/>
  <path class="cls-1" d="m153.13,336.59c1.47-1.11,3.08-3.25,4.38-3.08,1.58.21,2.9,2.37,4.33,3.69-1.33,1.36-2.51,3.57-4.02,3.83-1.36.23-3.07-1.7-4.63-2.68-.02-.59-.04-1.17-.06-1.76Z"/>
  <path class="cls-1" d="m613.39,348.97c1.82,2.57,3.54,3.93,3.69,5.45.26,2.65-1.88,4.28-4.34,3.72-1.51-.35-3.87-2.5-3.7-3.45.31-1.71,2.24-3.13,4.35-5.71Z"/>
  <path class="cls-1" d="m568.72,383.95c3.53.78,4.98,2.55,4.47,4.78-.34,1.49-2.19,3.49-3.61,3.71-2.4.36-4.51-1.44-4.03-4.08.29-1.61,2.06-2.95,3.16-4.41Z"/>
  <path class="cls-1" d="m277.67,575.77c1.46-.97,2.83-2.55,4.4-2.78,2.42-.36,4.08,1.38,4.02,3.84-.06,2.46-1.79,4.11-4.2,3.63-1.55-.31-2.85-1.9-4.27-2.92.01-.59.03-1.18.04-1.77Z"/>
  <path class="cls-1" d="m615.09,368.35c.98,1.46,2.6,2.83,2.81,4.39.33,2.41-1.42,4.01-3.91,3.97-2.39-.04-4.4-1.47-3.93-3.92.32-1.65,2.16-3.01,3.32-4.49.57.02,1.14.04,1.71.06Z"/>
  <path class="cls-1" d="m154.01,377.14c-.98-1.55-2.84-3.18-2.7-4.62.13-1.34,2.22-3.2,3.73-3.53,2.34-.52,4.32,1.21,3.86,3.7-.3,1.63-2,3.01-3.07,4.5-.61-.01-1.21-.03-1.82-.04Z"/>
  <path class="cls-1" d="m216.17,528.1c.9,1.64,2.5,3.29,2.47,4.91-.02,1.17-2.1,3.03-3.48,3.26-2.22.37-4.43-1.12-3.97-3.65.31-1.68,2.08-3.09,3.2-4.62.59.03,1.18.06,1.77.09Z"/>
  <path class="cls-1" d="m557.14,533.29c-1.47.95-3.08,2.81-4.37,2.61-1.42-.22-3.32-2.18-3.62-3.67-.49-2.44,1.58-4.14,3.9-3.77,1.51.24,2.78,2.01,4.15,3.1-.02.58-.05,1.15-.07,1.73Z"/>
  <path class="cls-1" d="m390.04,606.34c-2.49,1.62-3.97,3.33-5.18,3.15-1.33-.19-3.51-2.29-3.35-3.24.24-1.48,2.01-3.57,3.36-3.76,1.2-.17,2.71,1.9,5.17,3.84Z"/>
  <path d="m527,261.59c-47.26,95.8-94.25,191.07-141.24,286.34-.54.05-1.08.1-1.62.14-47.28-95.35-94.55-190.7-142.17-286.72,4.6,0,8.75,0,12.9,0,8.9,0,8.57.15,12.49,8.23,10.4,21.47,21.14,42.77,31.68,64.17,27.55,55.92,55.06,111.85,82.61,167.77.92,1.87,2,3.66,3.42,6.23,2.44-5.21,4.47-9.71,6.64-14.14,31.23-63.83,62.48-127.65,93.72-191.47,6.04-12.34,12.13-24.65,18.07-37.04,1.23-2.56,2.71-3.73,5.72-3.58,5.6.27,11.22.08,17.78.08Z"/>
  <path d="m587.36,451.38c4.28-.06,7.77,3.19,7.86,7.31.07,3.7-3.57,7.53-7.29,7.67-3.99.15-7.99-4.02-7.97-8.31.02-3.95,2.98-6.62,7.41-6.67Z"/>
  <path d="m476.09,572.41c-.09,4.04-3.82,7.74-7.73,7.67-3.9-.07-7.32-3.59-7.31-7.53.01-4.18,3.57-7.76,7.58-7.65,3.82.11,7.54,3.86,7.46,7.51Z"/>
  <path d="m307.89,530.94c-.05,3.91-3.62,7.61-7.35,7.61-4.11,0-7.92-3.9-7.83-8,.09-3.99,3.45-7.04,7.73-7.01,4.02.03,7.49,3.48,7.44,7.39Z"/>
  <path d="m420,295.79c-.07,4.02-3.45,7.36-7.4,7.3-4.47-.06-8.09-3.76-7.98-8.15.1-3.69,3.61-6.95,7.42-6.9,4.3.06,8.02,3.69,7.96,7.74Z"/>
  <path d="m418.61,170.96c-.04,3.98-3.6,7.77-7.23,7.7-4.21-.09-7.86-3.82-7.85-8.01.01-3.97,3.17-7.09,7.17-7.09,4.26,0,7.95,3.46,7.91,7.4Z"/>
  <path d="m507.71,562.29c-4.16.11-7.97-3.44-8.18-7.61-.2-3.96,2.81-7.2,6.8-7.32,4.11-.12,7.9,3.29,8.02,7.22.12,3.77-3.2,7.63-6.64,7.71Z"/>
  <path d="m197.94,371.07c-3.83-.13-7.62-4.21-7.41-7.97.22-3.84,3.81-6.9,7.98-6.81,4.19.09,7.23,3.32,7.09,7.53-.12,3.81-3.89,7.38-7.67,7.25Z"/>
  <path d="m356.9,303.11c-4.16-.09-7.44-3.52-7.43-7.78,0-4.22,3.42-7.48,7.71-7.38,4.23.1,7.55,3.56,7.43,7.73-.12,4.31-3.46,7.52-7.72,7.43Z"/>
  <path d="m206.76,499.08c4.28-.08,7.74,3.21,7.74,7.36,0,4.08-3.21,7.63-7.03,7.79-4.16.17-7.94-3.7-7.98-8.16-.03-3.75,3.26-6.91,7.26-6.98Z"/>
  <path d="m335.55,179.59c-3.96.04-7.86-3.89-7.88-7.96-.02-3.99,3.64-7.47,7.81-7.41,3.96.06,7.55,3.79,7.5,7.82-.04,3.74-3.75,7.51-7.43,7.55Z"/>
  <path d="m335.86,237.14c-4.18.09-7.74-3.18-7.94-7.3-.21-4.21,3.12-7.73,7.33-7.74,4.21-.01,7.63,3.3,7.72,7.47.09,4.11-3.07,7.48-7.1,7.56Z"/>
  <path d="m314.32,196.35c-.04,4.1-3.26,7.46-7.21,7.51-4.32.06-8.01-3.76-7.89-8.16.11-3.82,3.45-7.15,7.18-7.16,4.21,0,7.95,3.68,7.91,7.8Z"/>
  <path d="m584.99,352.49c4.28-.04,8.14,3.47,8.28,7.54.14,3.76-3.55,7.7-7.19,7.69-4.3-.02-8.09-3.55-8.19-7.64-.1-4.18,3.05-7.55,7.09-7.59Z"/>
  <path d="m426.61,229.3c0-4.16,3.12-7.12,7.48-7.09,3.88.02,7.57,3.91,7.46,7.86-.11,3.73-3.6,6.98-7.44,6.91-4.2-.08-7.51-3.46-7.5-7.68Z"/>
  <path d="m180.79,302.05c3.77-.06,7.52,3.53,7.66,7.32.15,4.05-3.13,7.52-7.18,7.57-4,.05-7.51-3.31-7.6-7.27-.1-4.15,3.08-7.56,7.12-7.62Z"/>
  <path d="m595.64,309.52c-.09,4.15-3.61,7.43-7.83,7.29-3.86-.13-7.36-3.75-7.3-7.55.06-4.05,3.68-7.62,7.7-7.59,3.85.03,7.52,3.91,7.44,7.86Z"/>
  <path d="m189.48,458.44c-.11,4.32-3.52,7.68-7.63,7.51-4.23-.18-7.63-3.93-7.44-8.2.17-3.89,3.4-6.68,7.56-6.55,4.13.13,7.6,3.47,7.5,7.25Z"/>
  <path d="m264.2,541.16c3.85.22,7.23,4.06,6.91,7.85-.32,3.73-4.25,7.23-7.94,7.04-3.85-.19-7.54-4.23-7.36-8.07.18-3.83,4.16-7.07,8.39-6.82Z"/>
  <path d="m511.61,482.69c4.42-.09,8.05,3.53,8.05,8.02,0,4.13-3,7.36-6.81,7.37-4.57,0-8.28-3.47-8.34-7.8-.06-4.15,3.07-7.5,7.1-7.58Z"/>
  <path d="m250.77,477.78c.08,4.16-3.12,7.61-7.09,7.63-4.1.02-7.82-3.43-7.99-7.41-.19-4.34,3.04-7.76,7.32-7.75,4.21,0,7.68,3.37,7.76,7.53Z"/>
  <path d="m564.63,513.78c-4.11,0-7.46-3.3-7.4-7.29.06-3.96,3.2-7.14,7.12-7.21,4.09-.07,7.83,3.58,7.72,7.53-.11,3.64-3.66,6.97-7.44,6.97Z"/>
  <path d="m470.08,179.11c0,3.85-3.59,7.31-7.53,7.24-4.17-.07-7.46-3.52-7.4-7.76.05-3.95,3.18-7.18,7.03-7.26,4.14-.1,7.89,3.6,7.9,7.79Z"/>
</svg>