<?xml version="1.0" encoding="UTF-8"?>
<svg id="_Слой_1" data-name=" Слой 1" xmlns="http://www.w3.org/2000/svg" viewBox="0 0 589.16 578.75">
  <defs>
    <style>
      .cls-1 {
        fill: #fff;
      }
    </style>
  </defs>
  <path class="cls-1" d="m0,282.6c1.09-53.2,17.73-108.47,53.36-157.45C100.69,60.1,164.31,20.35,243.07,5.14c50.93-9.84,100.99-5.4,149.89,12.03,58.25,20.77,105.18,56.61,141.81,106.22,27.76,37.58,44,79.85,51.05,125.82,8.51,55.56.68,109.11-22.73,159.85-28.23,61.16-72.85,107.37-133.33,137.5-44.69,22.26-92.11,33.61-142.23,32.05-49.47-1.54-95.79-14.79-139.2-38.47-58.43-31.87-99.33-79.7-126.17-139.9C6.52,365.18-.03,328.02,0,282.62v-.02Zm296.49,283.74c6.61-.32,14.6-.61,22.58-1.14,4.48-.3,8.96-.87,13.4-1.53,53.56-7.96,101.93-28,143.97-62.44,23.67-19.39,43.78-42.11,59.87-68.13,20.53-33.19,32.69-69.4,37.83-108.11,6.57-49.48-.55-97.14-20.19-142.63-24.18-56.04-63.62-99.13-116.28-129.84-53.52-31.2-111.07-44.97-173.01-37.64-38.01,4.49-73.89,15.93-107.43,34.52-38.24,21.19-69.84,49.68-95.21,85.29-31.64,44.41-47.38,94.02-49.11,148.23-.83,25.86,1.91,51.42,8.59,76.48,14.93,55.99,45.5,102.1,89.14,139.69,26.15,22.53,56.27,38.27,88.67,49.89,30.98,11.12,62.86,17.05,97.19,17.37h0Z"/>
  <path class="cls-1" d="m294.12,492.65c-56.01-112.85-112.02-225.71-168.16-338.83.84-.08,1.75-.23,2.66-.24,17.37-.05,34.75-.13,52.12-.03,1.24,0,3.1,1,3.62,2.05,21.31,42.97,42.5,85.99,63.7,129.01,15.02,30.48,30.01,60.96,45.03,91.44.53,1.08,1.16,2.12,2.07,3.77,3.23-6.52,6.18-12.41,9.07-18.33,21.74-44.58,43.48-89.16,65.19-133.76,11.65-23.92,23.25-47.87,34.96-71.76.5-1.01,1.88-2.27,2.85-2.28,18.36-.14,36.72-.1,55.97-.1-56.09,113.31-111.9,226.06-167.72,338.81l-1.37.25h.01Zm142.98-322.74c-6.57,0-12.19.19-17.78-.08-3-.14-4.49,1.02-5.72,3.58-5.95,12.38-12.03,24.7-18.07,37.04-31.24,63.82-62.49,127.64-93.72,191.47-2.17,4.44-4.2,8.94-6.64,14.14-1.42-2.57-2.5-4.36-3.42-6.23-27.54-55.92-55.06-111.85-82.61-167.77-10.54-21.4-21.28-42.7-31.68-64.17-3.91-8.08-3.59-8.23-12.49-8.23h-12.9c47.61,96.03,94.89,191.38,142.17,286.72.54-.05,1.08-.1,1.62-.14,46.99-95.27,93.98-190.54,141.24-286.34h0Z"/>
</svg>